<svg viewBox="0 0 1299.6666259765625 400" xmlns="http://www.w3.org/2000/svg"><g><g><g><g><g><line x1="53.1875" y1="347.828551667344" x2="48.1875" y2="347.828551667344" style="visibility: inherit;" fill="rgb(0, 0, 0)" stroke="rgb(204, 204, 204)" stroke-width="1px"></line><line x1="53.1875" y1="315.4367951654098" x2="48.1875" y2="315.4367951654098" style="visibility: inherit;" fill="rgb(0, 0, 0)" stroke="rgb(204, 204, 204)" stroke-width="1px"></line><line x1="53.1875" y1="292.4544781805806" x2="48.1875" y2="292.4544781805806" style="visibility: inherit;" fill="rgb(0, 0, 0)" stroke="rgb(204, 204, 204)" stroke-width="1px"></line><line x1="53.1875" y1="274.62800819683406" x2="48.1875" y2="274.62800819683406" style="visibility: inherit;" fill="rgb(0, 0, 0)" stroke="rgb(204, 204, 204)" stroke-width="1px"></line><line x1="53.1875" y1="260.0627216786464" x2="48.1875" y2="260.0627216786464" style="visibility: inherit;" fill="rgb(0, 0, 0)" stroke="rgb(204, 204, 204)" stroke-width="1px"></line><line x1="53.1875" y1="247.74794739666265" x2="48.1875" y2="247.74794739666265" style="visibility: inherit;" fill="rgb(0, 0, 0)" stroke="rgb(204, 204, 204)" stroke-width="1px"></line><line x1="53.1875" y1="237.08040469381714" x2="48.1875" y2="237.08040469381714" style="visibility: inherit;" fill="rgb(0, 0, 0)" stroke="rgb(204, 204, 204)" stroke-width="1px"></line><line x1="53.1875" y1="227.67096517671217" x2="48.1875" y2="227.67096517671217" style="visibility: inherit;" fill="rgb(0, 0, 0)" stroke="rgb(204, 204, 204)" stroke-width="1px"></line><line x1="53.1875" y1="219.2539347100706" x2="48.1875" y2="219.2539347100706" style="visibility: inherit;" fill="rgb(0, 0, 0)" stroke="rgb(204, 204, 204)" stroke-width="1px"></line><line x1="53.1875" y1="163.87986122330713" x2="48.1875" y2="163.87986122330713" style="visibility: inherit;" fill="rgb(0, 0, 0)" stroke="rgb(204, 204, 204)" stroke-width="1px"></line><line x1="53.1875" y1="131.48810472137296" x2="48.1875" y2="131.48810472137296" style="visibility: inherit;" fill="rgb(0, 0, 0)" stroke="rgb(204, 204, 204)" stroke-width="1px"></line><line x1="53.1875" y1="108.50578773654377" x2="48.1875" y2="108.50578773654377" style="visibility: inherit;" fill="rgb(0, 0, 0)" stroke="rgb(204, 204, 204)" stroke-width="1px"></line><line x1="53.1875" y1="90.6793177527972" x2="48.1875" y2="90.6793177527972" style="visibility: inherit;" fill="rgb(0, 0, 0)" stroke="rgb(204, 204, 204)" stroke-width="1px"></line><line x1="53.1875" y1="76.11403123460951" x2="48.1875" y2="76.11403123460951" style="visibility: inherit;" fill="rgb(0, 0, 0)" stroke="rgb(204, 204, 204)" stroke-width="1px"></line><line x1="53.1875" y1="63.7992569526258" x2="48.1875" y2="63.7992569526258" style="visibility: inherit;" fill="rgb(0, 0, 0)" stroke="rgb(204, 204, 204)" stroke-width="1px"></line><line x1="53.1875" y1="53.131714249780316" x2="48.1875" y2="53.131714249780316" style="visibility: inherit;" fill="rgb(0, 0, 0)" stroke="rgb(204, 204, 204)" stroke-width="1px"></line><line x1="53.1875" y1="43.72227473267526" x2="48.1875" y2="43.72227473267526" style="visibility: inherit;" fill="rgb(0, 0, 0)" stroke="rgb(204, 204, 204)" stroke-width="1px"></line><line x1="53.1875" y1="35.30524426603375" x2="48.1875" y2="35.30524426603375" style="visibility: inherit;" fill="rgb(0, 0, 0)" stroke="rgb(204, 204, 204)" stroke-width="1px"></line></g><g transform="translate(43.1875, 0)"><text x="0" y="347.828551667344" dx="0em" dy="0.3em" style="text-anchor: end; visibility: inherit; font-family: &quot;Helvetica Neue&quot;, sans-serif; font-size: 12px; font-weight: 200;" fill="rgb(50, 49, 63)" stroke="none" stroke-width="1px">20</text><text x="0" y="315.4367951654098" dx="0em" dy="0.3em" style="text-anchor: end; visibility: hidden; font-family: &quot;Helvetica Neue&quot;, sans-serif; font-size: 12px; font-weight: 200;" fill="rgb(50, 49, 63)" stroke="none" stroke-width="1px">30</text><text x="0" y="292.4544781805806" dx="0em" dy="0.3em" style="text-anchor: end; visibility: hidden; font-family: &quot;Helvetica Neue&quot;, sans-serif; font-size: 12px; font-weight: 200;" fill="rgb(50, 49, 63)" stroke="none" stroke-width="1px">40</text><text x="0" y="274.62800819683406" dx="0em" dy="0.3em" style="text-anchor: end; visibility: inherit; font-family: &quot;Helvetica Neue&quot;, sans-serif; font-size: 12px; font-weight: 200;" fill="rgb(50, 49, 63)" stroke="none" stroke-width="1px">50</text><text x="0" y="260.0627216786464" dx="0em" dy="0.3em" style="text-anchor: end; visibility: hidden; font-family: &quot;Helvetica Neue&quot;, sans-serif; font-size: 12px; font-weight: 200;" fill="rgb(50, 49, 63)" stroke="none" stroke-width="1px">60</text><text x="0" y="247.74794739666265" dx="0em" dy="0.3em" style="text-anchor: end; visibility: hidden; font-family: &quot;Helvetica Neue&quot;, sans-serif; font-size: 12px; font-weight: 200;" fill="rgb(50, 49, 63)" stroke="none" stroke-width="1px">70</text><text x="0" y="237.08040469381714" dx="0em" dy="0.3em" style="text-anchor: end; visibility: inherit; font-family: &quot;Helvetica Neue&quot;, sans-serif; font-size: 12px; font-weight: 200;" fill="rgb(50, 49, 63)" stroke="none" stroke-width="1px">80</text><text x="0" y="227.67096517671217" dx="0em" dy="0.3em" style="text-anchor: end; visibility: hidden; font-family: &quot;Helvetica Neue&quot;, sans-serif; font-size: 12px; font-weight: 200;" fill="rgb(50, 49, 63)" stroke="none" stroke-width="1px">90</text><text x="0" y="219.2539347100706" dx="0em" dy="0.3em" style="text-anchor: end; visibility: hidden; font-family: &quot;Helvetica Neue&quot;, sans-serif; font-size: 12px; font-weight: 200;" fill="rgb(50, 49, 63)" stroke="none" stroke-width="1px">100</text><text x="0" y="163.87986122330713" dx="0em" dy="0.3em" style="text-anchor: end; visibility: inherit; font-family: &quot;Helvetica Neue&quot;, sans-serif; font-size: 12px; font-weight: 200;" fill="rgb(50, 49, 63)" stroke="none" stroke-width="1px">200</text><text x="0" y="131.48810472137296" dx="0em" dy="0.3em" style="text-anchor: end; visibility: hidden; font-family: &quot;Helvetica Neue&quot;, sans-serif; font-size: 12px; font-weight: 200;" fill="rgb(50, 49, 63)" stroke="none" stroke-width="1px">300</text><text x="0" y="108.50578773654377" dx="0em" dy="0.3em" style="text-anchor: end; visibility: hidden; font-family: &quot;Helvetica Neue&quot;, sans-serif; font-size: 12px; font-weight: 200;" fill="rgb(50, 49, 63)" stroke="none" stroke-width="1px">400</text><text x="0" y="90.6793177527972" dx="0em" dy="0.3em" style="text-anchor: end; visibility: inherit; font-family: &quot;Helvetica Neue&quot;, sans-serif; font-size: 12px; font-weight: 200;" fill="rgb(50, 49, 63)" stroke="none" stroke-width="1px">500</text><text x="0" y="76.11403123460951" dx="0em" dy="0.3em" style="text-anchor: end; visibility: hidden; font-family: &quot;Helvetica Neue&quot;, sans-serif; font-size: 12px; font-weight: 200;" fill="rgb(50, 49, 63)" stroke="none" stroke-width="1px">600</text><text x="0" y="63.7992569526258" dx="0em" dy="0.3em" style="text-anchor: end; visibility: hidden; font-family: &quot;Helvetica Neue&quot;, sans-serif; font-size: 12px; font-weight: 200;" fill="rgb(50, 49, 63)" stroke="none" stroke-width="1px">700</text><text x="0" y="53.131714249780316" dx="0em" dy="0.3em" style="text-anchor: end; visibility: inherit; font-family: &quot;Helvetica Neue&quot;, sans-serif; font-size: 12px; font-weight: 200;" fill="rgb(50, 49, 63)" stroke="none" stroke-width="1px">800</text><text x="0" y="43.72227473267526" dx="0em" dy="0.3em" style="text-anchor: end; visibility: hidden; font-family: &quot;Helvetica Neue&quot;, sans-serif; font-size: 12px; font-weight: 200;" fill="rgb(50, 49, 63)" stroke="none" stroke-width="1px">900</text><text x="0" y="35.30524426603375" dx="0em" dy="0.3em" style="text-anchor: end; visibility: hidden; font-family: &quot;Helvetica Neue&quot;, sans-serif; font-size: 12px; font-weight: 200;" fill="rgb(50, 49, 63)" stroke="none" stroke-width="1px">1e+3</text></g><line x1="53.1875" y1="0" x2="53.1875" y2="377" fill="rgb(0, 0, 0)" stroke="rgb(204, 204, 204)" stroke-width="1px"></line></g></g><g transform="translate(53, 0)" clip-path="url(#clip_0)"><clipPath id="clip_0"><rect width="1246" height="377"></rect></clipPath><g><g><g><line x1="0" y1="0" x2="0" y2="377" fill="rgb(0, 0, 0)" stroke="rgb(60, 60, 60)" stroke-width="1px" opacity="0.25"></line><line x1="89.0344642857143" y1="0" x2="89.0344642857143" y2="377" fill="rgb(0, 0, 0)" stroke="rgb(60, 60, 60)" stroke-width="1px" opacity="0.25"></line><line x1="178.0689285714286" y1="0" x2="178.0689285714286" y2="377" fill="rgb(0, 0, 0)" stroke="rgb(60, 60, 60)" stroke-width="1px" opacity="0.25"></line><line x1="267.10339285714286" y1="0" x2="267.10339285714286" y2="377" fill="rgb(0, 0, 0)" stroke="rgb(60, 60, 60)" stroke-width="1px" opacity="0.25"></line><line x1="356.1378571428572" y1="0" x2="356.1378571428572" y2="377" fill="rgb(0, 0, 0)" stroke="rgb(60, 60, 60)" stroke-width="1px" opacity="0.25"></line><line x1="445.1723214285715" y1="0" x2="445.1723214285715" y2="377" fill="rgb(0, 0, 0)" stroke="rgb(60, 60, 60)" stroke-width="1px" opacity="0.25"></line><line x1="534.2067857142857" y1="0" x2="534.2067857142857" y2="377" fill="rgb(0, 0, 0)" stroke="rgb(60, 60, 60)" stroke-width="1px" opacity="0.25"></line><line x1="623.24125" y1="0" x2="623.24125" y2="377" fill="rgb(0, 0, 0)" stroke="rgb(60, 60, 60)" stroke-width="1px" opacity="0.25"></line><line x1="712.2757142857143" y1="0" x2="712.2757142857143" y2="377" fill="rgb(0, 0, 0)" stroke="rgb(60, 60, 60)" stroke-width="1px" opacity="0.25"></line><line x1="801.3101785714287" y1="0" x2="801.3101785714287" y2="377" fill="rgb(0, 0, 0)" stroke="rgb(60, 60, 60)" stroke-width="1px" opacity="0.25"></line><line x1="890.344642857143" y1="0" x2="890.344642857143" y2="377" fill="rgb(0, 0, 0)" stroke="rgb(60, 60, 60)" stroke-width="1px" opacity="0.25"></line><line x1="979.3791071428572" y1="0" x2="979.3791071428572" y2="377" fill="rgb(0, 0, 0)" stroke="rgb(60, 60, 60)" stroke-width="1px" opacity="0.25"></line><line x1="1068.4135714285715" y1="0" x2="1068.4135714285715" y2="377" fill="rgb(0, 0, 0)" stroke="rgb(60, 60, 60)" stroke-width="1px" opacity="0.25"></line><line x1="1157.4480357142859" y1="0" x2="1157.4480357142859" y2="377" fill="rgb(0, 0, 0)" stroke="rgb(60, 60, 60)" stroke-width="1px" opacity="0.25"></line><line x1="1246.4825" y1="0" x2="1246.4825" y2="377" fill="rgb(0, 0, 0)" stroke="rgb(60, 60, 60)" stroke-width="1px" opacity="0.25"></line></g><g><line x1="0" y1="347.828551667344" x2="1246.4825" y2="347.828551667344" fill="rgb(0, 0, 0)" stroke="rgb(60, 60, 60)" stroke-width="1px" opacity="0.25"></line><line x1="0" y1="315.4367951654098" x2="1246.4825" y2="315.4367951654098" fill="rgb(0, 0, 0)" stroke="rgb(60, 60, 60)" stroke-width="1px" opacity="0.25"></line><line x1="0" y1="292.4544781805806" x2="1246.4825" y2="292.4544781805806" fill="rgb(0, 0, 0)" stroke="rgb(60, 60, 60)" stroke-width="1px" opacity="0.25"></line><line x1="0" y1="274.62800819683406" x2="1246.4825" y2="274.62800819683406" fill="rgb(0, 0, 0)" stroke="rgb(60, 60, 60)" stroke-width="1px" opacity="0.25"></line><line x1="0" y1="260.0627216786464" x2="1246.4825" y2="260.0627216786464" fill="rgb(0, 0, 0)" stroke="rgb(60, 60, 60)" stroke-width="1px" opacity="0.25"></line><line x1="0" y1="247.74794739666265" x2="1246.4825" y2="247.74794739666265" fill="rgb(0, 0, 0)" stroke="rgb(60, 60, 60)" stroke-width="1px" opacity="0.25"></line><line x1="0" y1="237.08040469381714" x2="1246.4825" y2="237.08040469381714" fill="rgb(0, 0, 0)" stroke="rgb(60, 60, 60)" stroke-width="1px" opacity="0.25"></line><line x1="0" y1="227.67096517671217" x2="1246.4825" y2="227.67096517671217" fill="rgb(0, 0, 0)" stroke="rgb(60, 60, 60)" stroke-width="1px" opacity="0.25"></line><line x1="0" y1="219.2539347100706" x2="1246.4825" y2="219.2539347100706" fill="rgb(0, 0, 0)" stroke="rgb(60, 60, 60)" stroke-width="1px" opacity="0.25"></line><line x1="0" y1="163.87986122330713" x2="1246.4825" y2="163.87986122330713" fill="rgb(0, 0, 0)" stroke="rgb(60, 60, 60)" stroke-width="1px" opacity="0.25"></line><line x1="0" y1="131.48810472137296" x2="1246.4825" y2="131.48810472137296" fill="rgb(0, 0, 0)" stroke="rgb(60, 60, 60)" stroke-width="1px" opacity="0.25"></line><line x1="0" y1="108.50578773654377" x2="1246.4825" y2="108.50578773654377" fill="rgb(0, 0, 0)" stroke="rgb(60, 60, 60)" stroke-width="1px" opacity="0.25"></line><line x1="0" y1="90.6793177527972" x2="1246.4825" y2="90.6793177527972" fill="rgb(0, 0, 0)" stroke="rgb(60, 60, 60)" stroke-width="1px" opacity="0.25"></line><line x1="0" y1="76.11403123460951" x2="1246.4825" y2="76.11403123460951" fill="rgb(0, 0, 0)" stroke="rgb(60, 60, 60)" stroke-width="1px" opacity="0.25"></line><line x1="0" y1="63.7992569526258" x2="1246.4825" y2="63.7992569526258" fill="rgb(0, 0, 0)" stroke="rgb(60, 60, 60)" stroke-width="1px" opacity="0.25"></line><line x1="0" y1="53.131714249780316" x2="1246.4825" y2="53.131714249780316" fill="rgb(0, 0, 0)" stroke="rgb(60, 60, 60)" stroke-width="1px" opacity="0.25"></line><line x1="0" y1="43.72227473267526" x2="1246.4825" y2="43.72227473267526" fill="rgb(0, 0, 0)" stroke="rgb(60, 60, 60)" stroke-width="1px" opacity="0.25"></line><line x1="0" y1="35.30524426603375" x2="1246.4825" y2="35.30524426603375" fill="rgb(0, 0, 0)" stroke="rgb(60, 60, 60)" stroke-width="1px" opacity="0.25"></line></g></g></g><g><g><line x1="89.0344642857143" y1="0" x2="89.0344642857143" y2="377" fill="rgb(0, 0, 0)" stroke="rgb(153, 153, 153)" stroke-width="1.5px"></line></g></g><g><g><g><g><g><path stroke="rgb(51, 187, 238)" stroke-width="2px" d="M89.0344642857143,230.34060584744725L93.4861875,230.1525184594914L97.93791071428572,236.56347642354277L102.38963392857143,234.66537032430597L106.84135714285715,230.51458326676396L111.29308035714287,230.46936007591643L115.74480357142858,235.03362759830284L120.1965267857143,237.08236603716276L124.64825000000002,236.69570255224275L129.09997321428574,235.76780670232867L133.55169642857143,239.11703385762794L138.00341964285715,241.4240633558879L142.45514285714287,240.06888069025575L146.90686607142857,239.93755827862626L151.3585892857143,238.85840273541734L155.8103125,237.92434854172578L160.2620357142857,237.1000001520707L164.71375892857145,237.77130284186708L169.16548214285714,235.3249347663211L173.61720535714286,233.60530734503445L178.0689285714286,233.28652450151068L182.5206517857143,235.3336340390317L186.972375,234.50546313715697L191.42409821428575,233.74626914618165L195.87582142857144,235.27883013340104L200.32754464285716,235.20858161111482L204.77926785714286,234.07789556635794L209.23099107142858,233.07235190057463L213.6827142857143,233.18035917165687L218.1344375,231.58276120506943L222.58616071428574,230.47934189274577L227.03788392857143,229.18553014882787L231.48960714285715,230.2070370733265L235.94133035714287,229.2831559837456L240.3930535714286,228.71111775732703L244.8447767857143,228.4877249096648L249.29650000000004,229.23398688051225L253.74822321428573,229.6024543967083L258.1999464285715,231.51240158713804L262.65166964285714,228.93713808894375L267.10339285714286,229.6331674815462L271.5551160714286,229.0633126103083L276.0068392857143,227.9432919090507L280.4585625,228.68161144612452L284.91028571428575,227.03135271027082L289.36200892857147,226.66753733248254L293.81373214285713,228.35496448257643L298.2654553571429,228.19337625549855L302.7171785714286,228.03563010749596L307.1689017857143,228.45690817588857L311.620625,230.03638260873177L316.07234821428574,231.51690483682628L320.5240714285714,231.42234296541451L324.9757946428572,231.0408963459524L329.4275178571429,232.77232876221834L333.87924107142857,233.79864146003064L338.3309642857143,235.06118198362665L342.78268750000007,235.6418800869779L347.23441071428573,236.19926024595676L351.68613392857145,236.71516231544817L356.1378571428572,234.39690230393492L360.5895803571429,236.27336832425408L365.0413035714286,237.4107529836029L369.49302678571433,237.2011073029288L373.94475,235.1347095447103L378.3964732142857,235.09140889987893L382.8481964285715,235.6627786940845L387.29991964285716,236.82184368634654L391.7516428571429,237.32006395225747L396.20336607142855,238.077758372444L400.6550892857143,236.5639274043276L405.10681250000005,237.37272205788355L409.5585357142857,237.16903746431544L414.01025892857143,237.94342581321283L418.46198214285715,236.13446077757044L422.9137053571429,236.96972420422273L427.3654285714286,237.43300470907607L431.8171517857143,235.70300650227463L436.268875,236.54418223149938L440.72059821428576,233.64253295986535L445.1723214285715,234.30402699447762L449.62404464285714,234.01654434943202L454.07576785714286,232.83680066885407L458.52749107142864,231.45851755696245L462.9792142857143,231.383644365739L467.4309375,232.19003596694182L471.88266071428575,233.54768864636614L476.3343839285714,236.03004626838847L480.7861071428572,235.0207010187354L485.2378303571429,234.66348309407786L489.6895535714286,234.94297707129965L494.1412767857143,233.99783580735715L498.5930000000001,233.72641246826967L503.04472321428574,233.7876067675966L507.49644642857146,233.84565495451898L511.9481696428572,233.899125001976L516.399892857143,234.25164735781118L520.8516160714286,234.25715363779176L525.3033392857143,235.50637318873575L529.7550625,236.67432490334375L534.2067857142857,237.78170635362898L538.6585089285715,238.17945738371267L543.1102321428572,238.2362931456671L547.5619553571429,238.295823161546L552.0136785714286,238.6807255915884L556.4654017857143,236.49752890413706L560.917125,237.90978370301627L565.3688482142858,239.58269614869556L569.8205714285715,240.8566092805266L574.2722946428571,240.0787981251779L578.7240178571429,239.34842091928368L583.1757410714287,237.43876191782184L587.6274642857143,238.48857061159322L592.0791875,239.47528167293225L596.5309107142858,238.80735577164867L600.9826339285714,238.82928842121981L605.4343571428572,237.60508721307335L609.8860803571429,238.0343017793442L614.3378035714286,237.80720318664495L618.7895267857143,238.53140464212527L623.24125,236.65358589930452L627.6929732142858,237.7565627521146L632.1446964285715,237.53521561412086L636.5964196428571,238.59864999929465L641.0481428571428,237.67747465110565L645.4998660714286,237.77251388372724L649.9515892857144,238.170289264156L654.4033125000001,236.9694006743608L658.8550357142858,238.7006513672975L663.3067589285714,236.1983599564178L667.7584821428571,236.68938593772467L672.2102053571429,236.21981448364747L676.6619285714286,236.73570910046908L681.1136517857143,235.03618955737133L685.5653750000001,235.30880882110156L690.0170982142857,234.92072096771048L694.4688214285715,233.3892873023242L698.9205446428572,234.35411735944814L703.3722678571429,234.35139767818052L707.8239910714286,234.3815867795655L712.2757142857143,233.48542934027415L716.7274375,234.15745279442032L721.1791607142858,235.3983760663273L725.6308839285715,233.49857217304728L730.0826071428572,232.95509254518993L734.534330357143,231.2961581246537L738.9860535714287,229.7740100176843L743.4377767857143,229.80969140833102L747.8895,229.8200658722359L752.3412232142857,228.15298229375196L756.7929464285714,228.0053377829275L761.2446696428573,227.2909168632961L765.696392857143,228.31915047820712L770.1481160714286,228.7268032685086L774.5998392857143,231.11214272676676L779.0515625,231.33801765088816L783.5032857142858,230.08701441883215L787.9550089285715,230.07561605352993L792.4067321428571,231.82297659776106L796.8584553571428,230.2468711154583L801.3101785714287,230.82214396882938L805.7619017857144,231.07053022517007L810.2136250000001,232.7647984102409L814.6653482142858,234.08612661869162L819.1170714285714,234.10393526735865L823.5687946428571,235.63902895659962L828.0205178571429,234.96697056758384L832.4722410714286,234.93228665561304L836.9239642857143,234.00129782431515L841.3756875000001,234.03061083178085L845.8274107142857,234.08409977295105L850.2791339285715,232.609572335297L854.7308571428572,233.61446930474798L859.1825803571429,234.00168803826085L863.6343035714286,235.5531917207765L868.0860267857144,234.56785380101184L872.53775,234.2643635710344L876.9894732142858,232.49456656540073L881.4411964285715,232.33345279148523L885.8929196428572,232.1728823143582L890.344642857143,230.2803786794339L894.7963660714287,230.55106240987408L899.2480892857143,229.9539480518075L903.6998125,231.1325243491015L908.1515357142857,231.67534888608864L912.6032589285714,233.6318396531608L917.0549821428573,233.685210065526L921.506705357143,232.83005432174014L925.9584285714286,233.82031601472102L930.4101517857143,233.56055014346404L934.861875,233.01785101003927L939.3135982142858,231.34434710260496L943.7653214285715,231.56482493444298L948.2170446428571,232.65073794898677L952.6687678571428,233.05650150077471L957.1204910714287,233.1426342467552L961.5722142857144,232.6399576546396L966.0239375000001,234.5528796519411L970.4756607142858,233.04955073262053L974.9273839285714,233.74778424754228L979.3791071428572,235.3269174709508L983.8308303571429,235.60276412338388L988.2825535714286,236.48108813451137L992.7342767857143,236.98770307972853L997.1860000000001,236.20069556587168L1001.6377232142858,235.76115277565384L1006.0894464285715,235.06804429177495L1010.5411696428572,232.94347314051274L1014.9928928571429,234.52941480353766L1019.4446160714286,234.50206858711735L1023.8963392857144,235.40415757704142L1028.3480625,236.28703431712964L1032.799785714286,235.25035121243252L1037.2515089285716,236.42298270163488L1041.7032321428571,237.86358812403975L1046.1549553571429,239.22322656101804L1050.6066785714286,239.22284931413816L1055.0584017857143,239.876790810489L1059.510125,240.13274559470034L1063.9618482142857,239.72460461942654L1068.4135714285715,239.6822011767051L1072.8652946428572,238.69304718126452L1077.317017857143,237.1505801333021L1081.7687410714286,237.59709198037888L1086.2204642857143,235.82654665637065L1090.6721875,236.3577585803149L1095.1239107142858,237.1670426400035L1099.5756339285715,237.31857898782025L1104.0273571428572,238.0770747675616L1108.479080357143,238.8145666556009L1112.9308035714287,238.8401791747506L1117.3825267857144,237.58965319136126L1121.83425,233.4102730574002L1126.2859732142858,232.5728414881217L1130.7376964285716,230.6459372970562L1135.1894196428573,231.77433962996201L1139.641142857143,232.25640775947753L1144.0928660714285,231.2121891565319L1148.5445892857142,232.01628885552282L1152.9963125000002,233.0894578620781L1157.4480357142859,234.3941389711407L1161.8997589285716,235.62918314603388L1166.3514821428573,231.94304992837664L1170.8032053571428,232.4214047012915L1175.2549285714285,232.28019788264965L1179.7066517857143,231.81886380393072L1184.158375,231.4255844147397L1188.610098214286,233.104585133204L1193.0618214285716,234.39161708634634" style="fill: none;" fill="none"></path></g><g><path stroke="rgb(204, 51, 17)" stroke-width="2px" d="M89.0344642857143,324.4662048280394L93.4861875,324.4222955887975L97.93791071428572,324.35660296042386L102.38963392857143,324.3227063821238L106.84135714285715,297.6456576796953L111.29308035714287,268.8699781267966L115.74480357142858,264.0212801581908L120.1965267857143,258.6342167020109L124.64825000000002,261.7758657963243L129.09997321428574,266.0215165299202L133.55169642857143,261.27153269817654L138.00341964285715,254.73036254195105L142.45514285714287,249.70155297986292L146.90686607142857,245.61849067661726L151.3585892857143,239.22096197335904L155.8103125,233.18601939683882L160.2620357142857,227.4941822766736L164.71375892857145,226.544086620823L169.16548214285714,227.23639852236545L173.61720535714286,226.34407564854425L178.0689285714286,221.47815576274346L182.5206517857143,219.8962691053936L186.972375,217.85342799045668L191.42409821428575,217.25229821894618L195.87582142857144,215.53725728240806L200.32754464285716,211.80613238395108L204.77926785714286,211.73016749548813L209.23099107142858,211.14815869875193L213.6827142857143,212.20411600536627L218.1344375,213.67819111063852L222.58616071428574,212.92474707550326L227.03788392857143,213.30249571902252L231.48960714285715,211.57162986903978L235.94133035714287,208.58870690845373L240.3930535714286,209.7484944444222L244.8447767857143,208.40598638672404L249.29650000000004,204.4346445552118L253.74822321428573,205.80285160773934L258.1999464285715,206.15313880607093L262.65166964285714,205.5915265448794L267.10339285714286,203.74102019418277L271.5551160714286,204.22793575084387L276.0068392857143,203.37568770459512L280.4585625,203.88277657860658L284.91028571428575,201.37363661744888L289.36200892857147,202.0156011895102L293.81373214285713,201.76756257285706L298.2654553571429,203.63936770022767L302.7171785714286,205.00068222061455L307.1689017857143,206.27402606928572L311.620625,199.87480927076209L316.07234821428574,198.9746243552293L320.5240714285714,200.53884449075593L324.9757946428572,200.80168984089693L329.4275178571429,201.45302315146688L333.87924107142857,199.6561350753408L338.3309642857143,199.9694204754269L342.78268750000007,196.73313610333457L347.23441071428573,198.41849525504992L351.68613392857145,199.21269663591372L356.1378571428572,199.15631643293275L360.5895803571429,199.90220221057797L365.0413035714286,196.73325714005594L369.49302678571433,196.86967422081736L373.94475,194.76009589415108L378.3964732142857,193.17566791372312L382.8481964285715,191.37450544400102L387.29991964285716,190.77646318008073L391.7516428571429,191.64116296392177L396.20336607142855,189.2869948877936L400.6550892857143,187.4714095793748L405.10681250000005,183.86137374277328L409.5585357142857,186.41347227434497L414.01025892857143,185.1778132939317L418.46198214285715,186.34969142812122L422.9137053571429,186.768638657827L427.3654285714286,187.85192272370665L431.8171517857143,187.84499943016021L436.268875,189.8984838052701L440.72059821428576,188.02432063984287L445.1723214285715,189.37688068254775L449.62404464285714,189.61308931793266L454.07576785714286,191.24101117175948L458.52749107142864,193.15622841536762L462.9792142857143,191.01051381042797L467.4309375,192.57981699218016L471.88266071428575,194.0452953724051L476.3343839285714,195.4300928207733L480.7861071428572,195.25877917163254L485.2378303571429,195.4735247003674L489.6895535714286,196.43056234407896L494.1412767857143,195.077239555163L498.5930000000001,194.57283968382126L503.04472321428574,195.96205754450543L507.49644642857146,197.66608804653632L511.9481696428572,198.51296813319655L516.399892857143,198.51164219313338L520.8516160714286,199.2855157835834L525.3033392857143,200.81972618515272L529.7550625,199.87937501049691L534.2067857142857,199.0226345914763L538.6585089285715,200.55167793162332L543.1102321428572,201.21802199479512L547.5619553571429,202.64200166584405L552.0136785714286,202.75833062769206L556.4654017857143,204.54205397972228L560.917125,206.21613749289716L565.3688482142858,207.39823728705937L569.8205714285715,208.07209760434225L574.2722946428571,208.25486885086605L578.7240178571429,207.5795720450369L583.1757410714287,207.79392058798533L587.6274642857143,208.90156459602147L592.0791875,210.3701520600573L596.5309107142858,209.5461594766441L600.9826339285714,208.31645414760987L605.4343571428572,208.50544390370254L609.8860803571429,209.56117596236558L614.3378035714286,211.44156632400836L618.7895267857143,211.39903022885565L623.24125,210.48478008838907L627.6929732142858,211.4353156113901L632.1446964285715,211.40095400197393L636.5964196428571,211.85587613532778L641.0481428571428,213.63483110512138L645.4998660714286,214.8925776420689L649.9515892857144,215.59943111593617L654.4033125000001,215.29549663169348L658.8550357142858,210.465410757412L663.3067589285714,210.96897146462697L667.7584821428571,211.87609819038406L672.2102053571429,212.74608980781147L676.6619285714286,213.57728438904252L681.1136517857143,212.4908727206065L685.5653750000001,211.49672575391486L690.0170982142857,211.46494778760263L694.4688214285715,207.4805870593515L698.9205446428572,206.4470207360247L703.3722678571429,206.76810107943862L707.8239910714286,208.36915545862607L712.2757142857143,206.83021381321637L716.7274375,207.55073881060133L721.1791607142858,209.08150878098735L725.6308839285715,210.11418686316625L730.0826071428572,211.0938243211035L734.534330357143,208.8838979228882L738.9860535714287,210.34899536789055L743.4377767857143,211.75733716339454L747.8895,211.2583227795583L752.3412232142857,210.78305929090413L756.7929464285714,211.25254632376019L761.2446696428573,212.61053258918844L765.696392857143,214.35349540485151L770.1481160714286,215.5471476608116L774.5998392857143,215.22163439624362L779.0515625,211.24333252920002L783.5032857142858,212.15425142697387L787.9550089285715,212.06506339482758L792.4067321428571,213.36728378422723L796.8584553571428,214.61954154698094L801.3101785714287,214.381298482793L805.7619017857144,214.63748646396886L810.2136250000001,213.47273096549452L814.6653482142858,214.23469217933058L819.1170714285714,214.49328724343718L823.5687946428571,212.4126025442487L828.0205178571429,213.7029125900944L832.4722410714286,211.68238950463368L836.9239642857143,213.0136868725008L841.3756875000001,214.2975575393981L845.8274107142857,215.49106403529228L850.2791339285715,215.20496461571324L854.7308571428572,216.8363281408677L859.1825803571429,217.92301665953204L863.6343035714286,218.92194761773138L868.0860267857144,217.86661371132163L872.53775,218.3746068613247L876.9894732142858,217.84859747108055L881.4411964285715,219.34764790146286L885.8929196428572,216.8101131485411L890.344642857143,217.8764621374045L894.7963660714287,218.3802377348399L899.2480892857143,216.87921381978234L903.6998125,214.09584341801056L908.1515357142857,210.29853906612186L912.6032589285714,210.80096089345736L917.0549821428573,209.93305953968581L921.506705357143,210.8923345223308L925.9584285714286,212.26809060796734L930.4101517857143,211.75079214237041L934.861875,212.14505846894855L939.3135982142858,213.91940998608288L943.7653214285715,214.68873374847803L948.2170446428571,215.87006365498107L952.6687678571428,215.5390518371078L957.1204910714287,216.66452929320417L961.5722142857144,216.74643675829483L966.0239375000001,217.83623049017507L970.4756607142858,215.46988569144978L974.9273839285714,215.15633481827874L979.3791071428572,215.82466879610377L983.8308303571429,214.56556072390904L988.2825535714286,214.315116429339L992.7342767857143,210.90682692633203L997.1860000000001,208.69714939093248L1001.6377232142858,210.17325445968834L1006.0894464285715,206.3543588770892L1010.5411696428572,207.53226907789247L1014.9928928571429,206.49833190978416L1019.4446160714286,207.21140122412936L1023.8963392857144,204.5837720560206L1028.3480625,204.6046646972911L1032.799785714286,205.86474921791788L1037.2515089285716,204.96071975385564L1041.7032321428571,206.64459366177232L1046.1549553571429,208.24561149510777L1050.6066785714286,209.7429127435883L1055.0584017857143,210.74307491112145L1059.510125,208.12205350134363L1063.9618482142857,209.6523653502252L1068.4135714285715,210.64149031691232L1072.8652946428572,209.33730857324824L1077.317017857143,208.15086091847684L1081.7687410714286,209.6656363598076L1086.2204642857143,209.33284441995062L1090.6721875,210.33852716876697L1095.1239107142858,212.19508505376572L1099.5756339285715,212.58503894640944L1104.0273571428572,210.68516768541804L1108.479080357143,212.51409550879367L1112.9308035714287,213.327523355214L1117.3825267857144,210.06496562527022L1121.83425,209.6901058063118L1126.2859732142858,210.2460082510908L1130.7376964285716,209.84581990334405L1135.1894196428573,209.9285026504136L1139.641142857143,210.46298215452686L1144.0928660714285,210.05328729816344L1148.5445892857142,211.4638071873172L1152.9963125000002,209.6675666732614L1157.4480357142859,210.64357472400866L1161.8997589285716,210.6849906832906L1166.3514821428573,210.25286408888147L1170.8032053571428,210.329390690899L1175.2549285714285,211.75639043500883L1179.7066517857143,213.55954926228662L1184.158375,214.8121508864541L1188.610098214286,210.46651219574792L1193.0618214285716,209.61469779448652L1197.5135446428571,208.4189306486208" style="fill: none;" fill="none"></path></g><g><path stroke="rgb(0, 119, 187)" stroke-width="2px" d="M89.0344642857143,324.29913329454007L93.4861875,324.3105957395854L97.93791071428572,297.18734482376357L102.38963392857143,302.1403031148708L106.84135714285715,305.2636926826646L111.29308035714287,306.160090113543L115.74480357142858,307.88140819227834L120.1965267857143,310.2581313085407L124.64825000000002,311.1608105190809L129.09997321428574,312.8234612563723L133.55169642857143,313.3056391420388L138.00341964285715,312.86473738841664L142.45514285714287,314.0985174478442L146.90686607142857,315.14170726821095L151.3585892857143,316.0574315275951L155.8103125,316.8709962280232L160.2620357142857,316.86144717764995L164.71375892857145,316.8489168454957L169.16548214285714,317.5062350334591L173.61720535714286,317.4342906136114L178.0689285714286,317.3657408020291L182.5206517857143,317.9434480822468L186.972375,317.22078441614804L191.42409821428575,317.79245572440743L195.87582142857144,317.71253175612185L200.32754464285716,318.23372229068394L204.77926785714286,318.7045004315101L209.23099107142858,318.54947797535715L213.6827142857143,318.39932639623913L218.1344375,318.26349034708255L222.58616071428574,318.1478951377892L227.03788392857143,318.0393740407856L231.48960714285715,317.9299177230762L235.94133035714287,317.85283599323463L240.3930535714286,317.769523462816L244.8447767857143,318.2464629740897L249.29650000000004,318.6709897501498L253.74822321428573,318.52281015807296L258.1999464285715,318.92477342535415L262.65166964285714,318.25378535146683L267.10339285714286,318.66800790002645L271.5551160714286,318.52836225820056L276.0068392857143,318.4109231365139L280.4585625,318.8331650650419L284.91028571428575,319.20098924659567L289.36200892857147,319.5490842988492L293.81373214285713,319.35886283374685L298.2654553571429,319.70868965401337L302.7171785714286,320.0209582221464L307.1689017857143,320.31835494452787L311.620625,320.0715724396622L316.07234821428574,320.3671778086995L320.5240714285714,320.64559847536555L324.9757946428572,320.8884519906565L329.4275178571429,320.6019222810192L333.87924107142857,320.85307014260275L338.3309642857143,321.07900931699817L342.78268750000007,321.28573589537297L347.23441071428573,321.48637296507695L351.68613392857145,321.69043816054614L356.1378571428572,321.87622964044743L360.5895803571429,321.52041495590794L365.0413035714286,321.7078920949765L369.49302678571433,320.8456738563358L373.94475,321.08179867817995L378.3964732142857,320.780416691921L382.8481964285715,320.5092177535637L387.29991964285716,319.7326580844099L391.7516428571429,320.04163981503893L396.20336607142855,319.8224094550184L400.6550892857143,319.60909544670085L405.10681250000005,319.92369779286236L409.5585357142857,320.22333788918434L414.01025892857143,320.4969839386415L418.46198214285715,320.761258218706L422.9137053571429,320.9953222129688L427.3654285714286,320.7132915645145L431.8171517857143,320.96408607419835L436.268875,321.1852431606825L440.72059821428576,321.40913739066923L445.1723214285715,321.0964542874131L449.62404464285714,321.3203402248364L454.07576785714286,321.01637062492847L458.52749107142864,321.2361596766593L462.9792142857143,320.4133374142356L467.4309375,320.6761423844677L471.88266071428575,320.91337546135844L476.3343839285714,320.6246065573658L480.7861071428572,320.3591667582907L485.2378303571429,320.6206842402614L489.6895535714286,320.35500785145024L494.1412767857143,320.6126247884837L498.5930000000001,320.34204840253653L503.04472321428574,320.6001046067068L507.49644642857146,320.84787967327094L511.9481696428572,321.0766397303744L516.399892857143,321.30209358995666L520.8516160714286,320.9850935891104L525.3033392857143,320.69308956842536L529.7550625,320.4197683191318L534.2067857142857,320.6760282859286L538.6585089285715,320.91306935025233L543.1102321428572,320.6213801706415L547.5619553571429,320.35119549964884L552.0136785714286,320.6203394947556L556.4654017857143,320.3657793113248L560.917125,320.63101233441046L565.3688482142858,320.36056047114704L569.8205714285715,320.1133025678938L574.2722946428571,320.38867455601564L578.7240178571429,320.641228437922L583.1757410714287,320.37366501091134L587.6274642857143,320.6324127953606L592.0791875,320.88652229376805L596.5309107142858,320.60155503648275L600.9826339285714,320.8655493383673L605.4343571428572,321.0967550234442L609.8860803571429,321.30729828641824L614.3378035714286,320.9932225834382L618.7895267857143,321.21213979683L623.24125,320.8969040263432L627.6929732142858,321.1337710908865L632.1446964285715,321.33519091578046L636.5964196428571,321.0152435663468L641.0481428571428,321.2352110458949L645.4998660714286,321.447128115639L649.9515892857144,321.6383479038158L654.4033125000001,321.8245004974232L658.8550357142858,320.95726309639247L663.3067589285714,320.6656758641007L667.7584821428571,320.91745581906326L672.2102053571429,321.15170484546337L676.6619285714286,321.3666215898738L681.1136517857143,321.56246066019287L685.5653750000001,321.7390137981219L690.0170982142857,321.389912219016L694.4688214285715,321.6059060390399L698.9205446428572,321.7903940249691L703.3722678571429,321.4489071947362L707.8239910714286,321.63721457387607L712.2757142857143,321.815484585395L716.7274375,321.9818768754486L721.1791607142858,322.13796248317317L725.6308839285715,322.2803136880337L730.0826071428572,322.41133241971096L734.534330357143,322.5363943456513L738.9860535714287,322.66986906806915L743.4377767857143,322.78095658838816L747.8895,322.3612810954268L752.3412232142857,321.97351713786094L756.7929464285714,321.1059063146312L761.2446696428573,320.80771080736065L765.696392857143,321.038606226751L770.1481160714286,320.74002733600713L774.5998392857143,320.4803091056515L779.0515625,320.2393639487011L783.5032857142858,320.00360983287L787.9550089285715,319.783712891328L792.4067321428571,319.5807831618122L796.8584553571428,319.8922141868807L801.3101785714287,320.20178210056554L805.7619017857144,320.4753682979205L810.2136250000001,320.7371608709882L814.6653482142858,320.97643057729545L819.1170714285714,321.2018312058201L823.5687946428571,320.88882582407655L828.0205178571429,321.10728704524985L832.4722410714286,320.8195813613672L836.9239642857143,321.0608240035558L841.3756875000001,321.27408022067016L845.8274107142857,321.48312185977795L850.2791339285715,321.1655865025741L854.7308571428572,321.3724179999522L859.1825803571429,321.5809803843481L863.6343035714286,321.7630194674475L868.0860267857144,321.9526366225561L872.53775,322.12585683435856L876.9894732142858,322.2747622098338L881.4411964285715,321.8942618054201L885.8929196428572,321.02318010950427L890.344642857143,321.24807842233224L894.7963660714287,321.4582761487887L899.2480892857143,320.62793099202065L903.6998125,320.37532245314L908.1515357142857,320.63391118462215L912.6032589285714,320.87594644047965L917.0549821428573,321.104570643439L921.506705357143,320.8005157283154L925.9584285714286,321.03763523743453L930.4101517857143,320.2394010612551L934.861875,320.5139718874831L939.3135982142858,320.25516969472494L943.7653214285715,320.53159191234323L948.2170446428571,320.78512293590944L952.6687678571428,321.01390357755304L957.1204910714287,320.7375074817195L961.5722142857144,320.98681842651075L966.0239375000001,321.21529607128934L970.4756607142858,320.9274582129599L974.9273839285714,320.63552298781104L979.3791071428572,320.8841244074144L983.8308303571429,320.6037136372573L988.2825535714286,320.3303370752908L992.7342767857143,320.5969476061824L997.1860000000001,320.838410323195L1001.6377232142858,321.07948673001016L1006.0894464285715,321.29385284133616L1010.5411696428572,320.97882947669626L1014.9928928571429,321.20958476005535L1019.4446160714286,320.9141155604258L1023.8963392857144,320.6447948968648L1028.3480625,320.8955849060545L1032.799785714286,320.6075572860414L1037.2515089285716,320.34351384930613L1041.7032321428571,320.6113036724516L1046.1549553571429,320.85131905647796L1050.6066785714286,321.0986382754226L1055.0584017857143,321.3149644534583L1059.510125,320.99985473091704L1063.9618482142857,320.70834657983374L1068.4135714285715,320.4420558227222L1072.8652946428572,320.6961156399146L1077.317017857143,320.43338220049975L1081.7687410714286,320.68931802706504L1086.2204642857143,320.92373192060137L1090.6721875,321.1594088439233L1095.1239107142858,320.8536468786497L1099.5756339285715,320.56878555355286L1104.0273571428572,320.82764589435584L1108.479080357143,321.0579806026881L1112.9308035714287,320.7727331793769L1117.3825267857144,321.0114137320668L1121.83425,320.7140115520332L1126.2859732142858,319.92201081424435L1130.7376964285716,320.2106678185944L1135.1894196428573,320.48297843663545L1139.641142857143,320.7377865296864L1144.0928660714285,320.9726726804863L1148.5445892857142,321.2005138918624L1152.9963125000002,321.42702000282395L1157.4480357142859,321.10517647696884L1161.8997589285716,321.31548179434094L1166.3514821428573,321.526080385554L1170.8032053571428,321.7156865118505L1175.2549285714285,321.88554449492995L1179.7066517857143,322.0504665577543L1184.158375,321.6759286085765L1188.610098214286,321.34294561384894L1193.0618214285716,321.0258990059508L1197.5135446428571,320.72997037710564" style="fill: none;" fill="none"></path></g><g><path stroke="rgb(255, 112, 67)" stroke-width="2px" d="M89.0344642857143,315.68021754268193L93.4861875,279.038783104056L97.93791071428572,245.569164595799L102.38963392857143,248.2011713706908L106.84135714285715,248.12395627580798L111.29308035714287,243.22665009444268L115.74480357142858,244.02438783410312L120.1965267857143,244.63419271431468L124.64825000000002,244.09448979972078L129.09997321428574,244.12280572216187L133.55169642857143,242.42841333750755L138.00341964285715,238.0780383635378L142.45514285714287,227.48042251056103L146.90686607142857,216.8070414914152L151.3585892857143,210.25092021665557L155.8103125,206.06817318589358L160.2620357142857,200.43937377147978L164.71375892857145,195.5121054494821L169.16548214285714,195.4699429164281L173.61720535714286,195.103019272989L178.0689285714286,189.23993673622905L182.5206517857143,186.00178868227536L186.972375,183.32285774726554L191.42409821428575,177.39112208903967L195.87582142857144,176.0526979442835L200.32754464285716,171.6067769306103L204.77926785714286,167.35186161206664L209.23099107142858,159.8841227368001L213.6827142857143,157.72508428438397L218.1344375,154.0287033720396L222.58616071428574,155.14544616893969L227.03788392857143,155.49383509973836L231.48960714285715,155.00381722794953L235.94133035714287,153.6407266234005L240.3930535714286,151.00150771901934L244.8447767857143,148.41563646365015L249.29650000000004,142.7855306494332L253.74822321428573,140.9664808320728L258.1999464285715,137.76275395549175L262.65166964285714,134.716709658574L267.10339285714286,131.493958006338L271.5551160714286,132.01859621473923L276.0068392857143,131.39863834397872L280.4585625,128.87765766316045L284.91028571428575,127.54578350620787L289.36200892857147,124.50244656974436L293.81373214285713,123.640667650381L298.2654553571429,119.61186231226412L302.7171785714286,119.6859547618754L307.1689017857143,121.20167994706023L311.620625,119.92156254339511L316.07234821428574,117.96502491146464L320.5240714285714,114.9160706362735L324.9757946428572,113.9139053641087L329.4275178571429,114.59347918928717L333.87924107142857,110.23155079615213L338.3309642857143,109.46770412998956L342.78268750000007,109.44527688170535L347.23441071428573,108.95452808268203L351.68613392857145,110.17716081721994L356.1378571428572,108.44930876443101L360.5895803571429,103.9716370626108L365.0413035714286,101.67474638620968L369.49302678571433,97.35425385760215L373.94475,98.21541191963536L378.3964732142857,94.25974572880085L382.8481964285715,96.88283942906861L387.29991964285716,94.94993289778586L391.7516428571429,95.76721770875508L396.20336607142855,94.24373651730963L400.6550892857143,92.16211409568257L405.10681250000005,91.2072303253891L409.5585357142857,88.90029687687252L414.01025892857143,88.7970849695123L418.46198214285715,87.63151542435224L422.9137053571429,86.34619578315431L427.3654285714286,86.91195714102378L431.8171517857143,89.05125319498785L436.268875,89.0909546781366L440.72059821428576,88.32624088891015L445.1723214285715,89.63587997558687L449.62404464285714,89.96817967740935L454.07576785714286,87.78037700170779L458.52749107142864,87.09862512195946L462.9792142857143,86.40757645096244L467.4309375,83.02058766850342L471.88266071428575,83.1531934204861L476.3343839285714,81.72299153065438L480.7861071428572,81.54344391131184L485.2378303571429,81.41800034192391L489.6895535714286,79.45529414799279L494.1412767857143,82.22513225899314L498.5930000000001,80.13222594192291L503.04472321428574,78.4672897451319L507.49644642857146,77.84906150448779L511.9481696428572,76.91532815024004L516.399892857143,77.23145737293504L520.8516160714286,76.49413011375282L525.3033392857143,75.96114091765332L529.7550625,76.59677064347528L534.2067857142857,78.78574734099578L538.6585089285715,76.29299494792906L543.1102321428572,76.203284987406L547.5619553571429,78.43791949631054L552.0136785714286,77.60901194867131L556.4654017857143,75.4880875587071L560.917125,74.58436146505346L565.3688482142858,74.1964834909478L569.8205714285715,73.07808268164297L574.2722946428571,72.00437637169142L578.7240178571429,72.408505485906L583.1757410714287,74.32651055113422L587.6274642857143,76.967803510625L592.0791875,77.23017507941086L596.5309107142858,74.19244304738794L600.9826339285714,76.05754362092415L605.4343571428572,75.42675662440178L609.8860803571429,74.91064446839835L614.3378035714286,73.18027600025425L618.7895267857143,74.70244290564955L623.24125,75.54440415454451L627.6929732142858,76.31073169078428L632.1446964285715,77.79194676340398L636.5964196428571,75.43839399788374L641.0481428571428,77.35829765349558L645.4998660714286,78.35577837124026L649.9515892857144,78.23295202596631L654.4033125000001,79.07244865210379L658.8550357142858,79.63295680037953L663.3067589285714,80.5996074723866L667.7584821428571,77.94746266254435L672.2102053571429,75.91606185888259L676.6619285714286,77.90104206122777L681.1136517857143,75.0194334594666L685.5653750000001,78.17641251109808L690.0170982142857,81.35217873526051L694.4688214285715,80.82589757767778L698.9205446428572,79.28810067269092L703.3722678571429,79.71990225882229L707.8239910714286,77.13852180236194L712.2757142857143,77.88504744788565L716.7274375,76.57653198122716L721.1791607142858,77.20059114402119L725.6308839285715,75.62718132669204L730.0826071428572,75.50204116726496L734.534330357143,74.85612718085758L738.9860535714287,73.1260534293375L743.4377767857143,70.78827602689114L747.8895,68.30520575477283L752.3412232142857,69.88136204693126L756.7929464285714,68.94702261855235L761.2446696428573,69.25565471547077L765.696392857143,71.51491995217225L770.1481160714286,71.39677893774098L774.5998392857143,69.99421475697494L779.0515625,68.4524959471807L783.5032857142858,68.61693360253781L787.9550089285715,67.5633205708101L792.4067321428571,66.74204996483809L796.8584553571428,64.63609669237093L801.3101785714287,63.836758205398496L805.7619017857144,65.04054041341783L810.2136250000001,63.08907773967803L814.6653482142858,62.36139422928778L819.1170714285714,62.177687929286094L823.5687946428571,63.134021206023135L828.0205178571429,64.50242600303841L832.4722410714286,62.97911969630212L836.9239642857143,61.210232296660195L841.3756875000001,62.07726215209482L845.8274107142857,60.98933777644953L850.2791339285715,60.18732390277688L854.7308571428572,58.65849108385936L859.1825803571429,57.25585926808071L863.6343035714286,56.76441822545689L868.0860267857144,55.52443644105227L872.53775,58.45341219143398L876.9894732142858,58.561915281636004L881.4411964285715,57.32954207008129L885.8929196428572,59.00740229050973L890.344642857143,59.61853235019396L894.7963660714287,60.21540258365445L899.2480892857143,59.69865461325509L903.6998125,58.21549484422695L908.1515357142857,60.64150246956888L912.6032589285714,59.711971018215365L917.0549821428573,59.336068091121376L921.506705357143,57.8789380750257L925.9584285714286,59.66059109877807L930.4101517857143,58.17681935947684L934.861875,57.148656840114484L939.3135982142858,55.89907007171723L943.7653214285715,55.34826562253721L948.2170446428571,55.756535273403756L952.6687678571428,56.485878483688055L957.1204910714287,57.08467402898526L961.5722142857144,58.719075738243646L966.0239375000001,57.40758332596329L970.4756607142858,58.39101310723606L974.9273839285714,57.01290738634452L979.3791071428572,55.74715235946411L983.8308303571429,56.500975995230704L988.2825535714286,55.27548711877847L992.7342767857143,57.61334271705874L997.1860000000001,58.75507923080505L1001.6377232142858,57.703655424627584L1006.0894464285715,56.97143946830829L1010.5411696428572,59.22610890007627L1014.9928928571429,58.399896454176826L1019.4446160714286,57.87008193403955L1023.8963392857144,56.53582971063162L1028.3480625,55.31050254230479L1032.799785714286,54.464158405079274L1037.2515089285716,53.91494214870767L1041.7032321428571,54.200323697111514L1046.1549553571429,53.207641496335214L1050.6066785714286,54.36309994358572L1055.0584017857143,53.77813230443502L1059.510125,52.77908730361719L1063.9618482142857,51.852918305772334L1068.4135714285715,51.793494315163116L1072.8652946428572,51.13685215416717L1077.317017857143,50.52481825449877L1081.7687410714286,49.76933889478494L1086.2204642857143,49.93010754359017L1090.6721875,49.22299735045948L1095.1239107142858,48.56524665857984L1099.5756339285715,47.96058572884186L1104.0273571428572,48.32250870683242L1108.479080357143,48.005230999334515L1112.9308035714287,48.09018081302503L1117.3825267857144,49.16886694967343L1121.83425,50.336275721465086L1126.2859732142858,49.599935735829604L1130.7376964285716,49.37810236946069L1135.1894196428573,49.01997144010102L1139.641142857143,48.699168873426345L1144.0928660714285,51.26516717596138L1148.5445892857142,52.24421714436636L1152.9963125000002,53.710385935002364L1157.4480357142859,52.70845782472878L1161.8997589285716,53.237200699919526L1166.3514821428573,52.271276529262025L1170.8032053571428,51.38101633424304L1175.2549285714285,52.51515538663176L1179.7066517857143,54.36101560300477L1184.158375,53.86464637094167L1188.610098214286,53.31471376036137L1193.0618214285716,52.34782013911541L1197.5135446428571,52.733900047849545" style="fill: none;" fill="none"></path></g></g></g></g><g opacity="0.2"><g><g><g><path stroke="rgb(51, 187, 238)" stroke-width="2px" d="M89.0344642857143,230.34060584744725L93.4861875,229.9774313512557L97.93791071428572,249.6120881730215L102.38963392857143,229.90385620580972L106.84135714285715,217.91736837178L111.29308035714287,230.28509679212834L115.74480357142858,261.13280802629305L120.1965267857143,249.0492981030867L124.64825000000002,234.44060927165015L129.09997321428574,230.01552055933396L133.55169642857143,267.40758934350697L138.00341964285715,261.04174693023293L142.45514285714287,230.1413516324736L146.90686607142857,238.85939257625122L151.3585892857143,230.08501058754476L155.8103125,229.97181328333156L160.2620357142857,229.78974680324103L164.71375892857145,244.55092123702616L169.16548214285714,214.39963873632513L173.61720535714286,217.90683189674579L178.0689285714286,230.03027167083593L182.5206517857143,261.26685655829726L186.972375,225.99707610613333L191.42409821428575,225.77086238918127L195.87582142857144,254.9910056449591L200.32754464285716,234.40750529665388L204.77926785714286,221.98341715035838L209.23099107142858,222.0878945864255L213.6827142857143,234.48003946926895L218.1344375,214.47443777525754L222.58616071428574,218.13047561960846L227.03788392857143,214.77702742838488L231.48960714285715,244.1096063106165L235.94133035714287,218.5443141745704L240.3930535714286,221.829811332947L244.8447767857143,225.7045284010735L249.29650000000004,239.4397120598365L253.74822321428573,234.49706948146155L258.1999464285715,261.4783940272522L262.65166964285714,201.364487140976L267.10339285714286,239.3252740641342L271.5551160714286,221.943454620567L276.0068392857143,214.49505640317938L280.4585625,239.14311085539612L284.91028571428575,207.8586042849834L289.36200892857147,221.97630339165298L293.81373214285713,255.1583635444411L298.2654553571429,226.0605407265168L302.7171785714286,225.94730036052107L307.1689017857143,234.35463519365132L311.620625,255.1108112862623L316.07234821428574,254.80839698684423L320.5240714285714,230.15219987227619L324.9757946428572,226.0361201863435L329.4275178571429,261.02598897876493L333.87924107142857,249.27159384681755L338.3309642857143,254.6300056133636L342.78268750000007,244.02702867551045L347.23441071428573,244.24002837491219L351.68613392857145,244.13635777908266L356.1378571428572,207.96994121776993L360.5895803571429,267.80853336066116L365.0413035714286,254.93492595579693L369.49302678571433,234.37311144591285L373.94475,211.07853414409703L378.3964732142857,234.49745304887435L382.8481964285715,243.9844718804839L387.29991964285716,254.8040693043512L391.7516428571429,244.53341411748465L396.20336607142855,249.34967652964514L400.6550892857143,218.14170881882222L405.10681250000005,249.4837154554725L409.5585357142857,234.40389505156335L414.01025892857143,249.50915097185333L418.46198214285715,214.5662893103834L422.9137053571429,249.53618842348362L427.3654285714286,244.14398962240494L431.8171517857143,214.93487065933752L436.268875,249.22182201678845L440.72059821428576,201.53667331010496L445.1723214285715,244.09386748629075L449.62404464285714,230.13100072557586L454.07576785714286,218.04285200083763L458.52749107142864,214.43905802424857L462.9792142857143,230.3512710825248L467.4309375,244.3213084195073L471.88266071428575,255.26857120264833L476.3343839285714,282.1286613615465L480.7861071428572,222.17523535897084L485.2378303571429,229.8580244484737L489.6895535714286,238.93222578938784L494.1412767857143,221.90152113831803L498.5930000000001,230.04566036635L503.04472321428574,234.64330519494123L507.49644642857146,234.65720660579504L511.9481696428572,234.64642374863226L516.399892857143,239.32278230978181L520.8516160714286,234.33377814364886L525.3033392857143,255.275512069042L529.7550625,254.98848886319612L534.2067857142857,255.02950608147387L538.6585089285715,243.92908728979185L543.1102321428572,239.03130600909054L547.5619553571429,239.12878178221365L552.0136785714286,244.23852844357623L556.4654017857143,211.04850941592693L560.917125,260.70075921735975L565.3688482142858,267.4521421970613L569.8205714285715,261.0868066271748L574.2722946428571,229.97271939659691L578.7240178571429,229.82039286667373L583.1757410714287,214.72978646790662L587.6274642857143,254.74512203621413L592.0791875,254.64937793312856L596.5309107142858,230.04681847515607L600.9826339285714,239.1352307196754L605.4343571428572,222.2648235762086L609.8860803571429,244.2621306279098L614.3378035714286,234.71092824786004L618.7895267857143,249.36139462883494L623.24125,214.26687733741423L627.6929732142858,254.9416092325865L632.1446964285715,234.51558608672218L636.5964196428571,255.09525001484934L641.0481428571428,225.8467032882708L645.4998660714286,239.10762510620805L649.9515892857144,243.92474616299842L654.4033125000001,221.89101915777766L658.8550357142858,267.7705381519985L663.3067589285714,207.6601662982243L667.7584821428571,243.85969902020224L672.2102053571429,229.9531217624882L676.6619285714286,244.28823282833545L681.1136517857143,214.5023611870156L685.5653750000001,239.2047403079111L690.0170982142857,229.70411007457963L694.4688214285715,214.64885621516245L698.9205446428572,249.1614720315992L703.3722678571429,234.31353736145076L707.8239910714286,234.8031436456777L712.2757142857143,221.9508617531571L716.7274375,244.15481860326105L721.1791607142858,255.04124823465958L725.6308839285715,210.88249355515936L730.0826071428572,225.74805737979202L734.534330357143,211.19042029427115L738.9860535714287,211.1332986403786L743.4377767857143,230.30821271201057L747.8895,229.96466928869236L752.3412232142857,207.96069645643095L756.7929464285714,225.97725623366077L761.2446696428573,217.9544368802889L765.696392857143,244.21064318281412L770.1481160714286,234.63077308831666L774.5998392857143,274.91238054323117L779.0515625,234.5515692616108L783.5032857142858,214.43986141383414L787.9550089285715,229.9170612988088L792.4067321428571,261.227745492933L796.8584553571428,211.02431850905577L801.3101785714287,239.2957384541845L805.7619017857144,234.6120894172401L810.2136250000001,261.085561628031L814.6653482142858,255.19823030419752L819.1170714285714,234.35233792730057L823.5687946428571,260.7990954992716L828.0205178571429,226.1523371219853L832.4722410714286,234.45086308442703L836.9239642857143,222.05219722575774L841.3756875000001,234.43992376532307L845.8274107142857,234.83269343857364L850.2791339285715,214.48534643925592L854.7308571428572,249.10574620069028L859.1825803571429,239.59845877114068L863.6343035714286,261.0332583293838L868.0860267857144,221.97738176646638L872.53775,230.15377868289644L876.9894732142858,211.22189844219383L881.4411964285715,230.12301845220938L885.8929196428572,229.9697919907741L890.344642857143,207.73823491483765L894.7963660714287,234.41895601040363L899.2480892857143,222.07188120460248L903.6998125,249.6572167742329L908.1515357142857,239.644704647671L912.6032589285714,267.4642831050019L917.0549821428573,234.43214036411712L921.506705357143,221.78516928038513L925.9584285714286,249.06153871215082L930.4101517857143,230.02834654855832L934.861875,225.8203760951447L939.3135982142858,211.08354119687587L943.7653214285715,234.7000198169265L948.2170446428571,249.5419318330005L952.6687678571428,238.93214781572448L957.1204910714287,234.35181516117197L961.5722142857144,225.95007738552894L966.0239375000001,267.4416408806194L970.4756607142858,214.61208218337717L974.9273839285714,244.16404229023956L979.3791071428572,261.3487285440543L983.8308303571429,239.54642485197547L988.2825535714286,249.83616323373758L992.7342767857143,244.3982375111818L997.1860000000001,225.97801207035872L1001.6377232142858,229.8791234240002L1006.0894464285715,225.99348177295482L1010.5411696428572,208.0593324203301L1014.9928928571429,260.68529360613564L1019.4446160714286,234.12223210334884L1023.8963392857144,249.15575590861016L1028.3480625,249.7179157953345L1032.799785714286,222.05902104505745L1037.2515089285716,254.8418659734653L1041.7032321428571,261.20799876778284L1046.1549553571429,261.0453770978744L1050.6066785714286,239.21759619733206L1055.0584017857143,249.5875286727138L1059.510125,243.7849519376434L1063.9618482142857,234.24769094476324L1068.4135714285715,239.09404464461448L1072.8652946428572,226.05769349107663L1077.317017857143,218.28970290240818L1081.7687410714286,244.08912648203795L1086.2204642857143,214.5459855680588L1090.6721875,244.14746039647304L1095.1239107142858,249.3818943305026L1099.5756339285715,239.45920653632328L1104.0273571428572,249.4640169503047L1108.479080357143,249.8617648751855L1112.9308035714287,239.197699005595L1117.3825267857144,221.9475962262281L1121.83425,190.56097436622684L1126.2859732142858,221.74089798233084L1130.7376964285716,207.75176570323282L1135.1894196428573,249.41021336309228L1139.641142857143,239.29045923296638L1144.0928660714285,217.93309176009384L1148.5445892857142,244.14621189922747L1152.9963125000002,249.7587556778713L1157.4480357142859,255.2001849750323L1161.8997589285716,255.16697640511418L1166.3514821428573,193.01260409603688L1170.8032053571428,239.39866678566548L1175.2549285714285,230.33934544099193L1179.7066517857143,225.6569948365061L1184.158375,226.14117487054574L1188.610098214286,261.1168622664868L1193.0618214285716,254.87421616072504" style="fill: none;" fill="none"></path></g><g><path stroke="rgb(204, 51, 17)" stroke-width="2px" d="M89.0344642857143,324.4662048280394L93.4861875,324.3813500199411L97.93791071428572,324.2382634190561L102.38963392857143,324.2341125689856L106.84135714285715,243.97936359806934L111.29308035714287,204.650533291125L115.74480357142858,244.35433095075496L120.1965267857143,234.70541837962583L124.64825000000002,283.4724753857606L129.09997321428574,300.7924148754728L133.55169642857143,234.2738288084601L138.00341964285715,217.97355039886855L142.45514285714287,218.38623710684084L146.90686607142857,218.04617187355535L151.3585892857143,198.4542306341995L155.8103125,192.92999395231533L160.2620357142857,187.88093860619844L164.71375892857145,217.9202814309031L169.16548214285714,234.4568567562831L173.61720535714286,217.77270026440993L178.0689285714286,183.0714755785397L182.5206517857143,204.70830178629615L186.972375,198.4374799137322L191.42409821428575,210.866956844801L195.87582142857144,198.36691744133162L200.32754464285716,178.18850899287912L204.77926785714286,210.8519114522333L209.23099107142858,204.59107157633957L213.6827142857143,226.01012847645592L218.1344375,234.00241653754105L222.58616071428574,204.272008077736L227.03788392857143,218.10230641015653L231.48960714285715,192.72764148763628L235.94133035714287,178.43221527648328L240.3930535714286,226.02928642638332L244.8447767857143,193.07392609108464L249.29650000000004,165.90929317224428L253.74822321428573,225.86347832773302L258.1999464285715,210.8252241004198L262.65166964285714,198.63177100885468L267.10339285714286,182.8454255652418L271.5551160714286,210.9044674351831L276.0068392857143,192.9264079559862L280.4585625,210.90756391610918L284.91028571428575,173.91298858993594L289.36200892857147,211.09176775064108L293.81373214285713,198.52746584453644L298.2654553571429,234.15004014968116L302.7171785714286,225.95836263995702L307.1689017857143,225.74054749986422L311.620625,142.97706864638255L316.07234821428574,187.7058614898834L320.5240714285714,225.44780971178233L324.9757946428572,204.4574354538733L329.4275178571429,210.87982065259422L333.87924107142857,178.51893329797778L338.3309642857143,204.3696457638875L342.78268750000007,162.12313071727937L347.23441071428573,225.957321964815L351.68613392857145,210.9652605660511L356.1378571428572,198.38742718383568L360.5895803571429,210.9105671780434L365.0413035714286,162.5394469327107L369.49302678571433,198.76928650301937L373.94475,170.27670761420472L378.3964732142857,174.05289121271767L382.8481964285715,169.97002950701383L387.29991964285716,182.95490746924818L391.7516428571429,204.6422231437389L396.20336607142855,162.35026890063332L400.6550892857143,165.87087896990926L405.10681250000005,145.7768033204042L409.5585357142857,234.02471978318684L414.01025892857143,169.79260699464683L418.46198214285715,204.63304085242945L422.9137053571429,192.808396662833L427.3654285714286,204.6009694876231L431.8171517857143,187.7491140953177L436.268875,225.67176843092832L440.72059821428576,165.75189097966847L445.1723214285715,210.97038690072674L449.62404464285714,192.9646084066871L454.07576785714286,218.1199530654364L458.52749107142864,225.9656013415105L462.9792142857143,165.98028240623339L467.4309375,218.32459504193758L471.88266071428575,217.7922850080539L476.3343839285714,217.66038868447154L480.7861071428572,192.91575612885202L485.2378303571429,198.51903064572534L489.6895535714286,211.07568961763462L494.1412767857143,178.3130986302936L498.5930000000001,187.87193449282023L503.04472321428574,218.29598392874576L507.49644642857146,226.13494993513507L511.9481696428572,211.32743959894833L516.399892857143,198.49320397599521L520.8516160714286,210.90716861398886L525.3033392857143,225.92990472729332L529.7550625,187.83097611808034L534.2067857142857,187.96876957704345L538.6585089285715,225.56777076175956L543.1102321428572,211.11672222653075L547.5619553571429,225.65024625365643L552.0136785714286,204.39488857762814L556.4654017857143,234.67379390996857L560.917125,234.10774080335221L565.3688482142858,225.9732782636375L569.8205714285715,218.09333737103307L574.2722946428571,210.8430896515L578.7240178571429,198.7288960522448L583.1757410714287,210.83875042910435L587.6274642857143,226.16455758908984L592.0791875,234.2368529323375L596.5309107142858,198.87978318808663L600.9826339285714,192.91426586300216L605.4343571428572,211.18386941701905L609.8860803571429,225.92244398974958L614.3378035714286,243.62216311686026L618.7895267857143,210.80919403330748L623.24125,198.73689141969393L627.6929732142858,225.99814382666358L632.1446964285715,210.92408599982502L636.5964196428571,218.47440134587714L641.0481428571428,243.68607365300608L645.4998660714286,234.83761205909934L649.9515892857144,226.15197166643964L654.4033125000001,211.17963835374186L658.8550357142858,162.7627668174351L663.3067589285714,218.33155963397917L667.7584821428571,225.7101912457905L672.2102053571429,225.96101410286255L676.6619285714286,226.15069590745748L681.1136517857143,198.7235411120713L685.5653750000001,198.80384630708372L690.0170982142857,211.02377417419365L694.4688214285715,166.15753026497825L698.9205446428572,193.29292317472118L703.3722678571429,211.37845930281483L707.8239910714286,234.8214202731774L712.2757142857143,188.00838893122912L716.7274375,218.32395645056485L721.1791607142858,234.15628305368077L725.6308839285715,226.0818019648793L730.0826071428572,226.15326073527063L734.534330357143,183.15796602594367L738.9860535714287,234.15886114813256L743.4377767857143,234.49051961449698L747.8895,204.61527822104784L752.3412232142857,204.44306381737215L756.7929464285714,218.09414832780462L761.2446696428573,234.40123536312538L765.696392857143,243.66755534800683L770.1481160714286,234.3405213029389L774.5998392857143,210.82150009975413L779.0515625,169.96624737553097L783.5032857142858,226.0534128735174L787.9550089285715,210.8333473021113L792.4067321428571,234.12773860558366L796.8584553571428,234.46849888732197L801.3101785714287,211.13550651931996L805.7619017857144,218.29305111577526L810.2136250000001,198.8040161710505L814.6653482142858,225.6776865601199L819.1170714285714,218.1840714059412L823.5687946428571,187.96581148290372L828.0205178571429,234.24524969019637L832.4722410714286,187.83912004424366L836.9239642857143,234.30993136030932L841.3756875000001,234.72217843405886L845.8274107142857,234.28219267150288L850.2791339285715,211.32389631719036L854.7308571428572,243.89244828273112L859.1825803571429,234.82764920405458L863.6343035714286,234.31117504435568L868.0860267857144,204.4583166742714L872.53775,225.80630274616536L876.9894732142858,210.86239134964555L881.4411964285715,243.81006154359127L885.8929196428572,187.9369037327677L890.344642857143,234.4271950552554L894.7963660714287,225.7471053841079L899.2480892857143,198.46679363058325L903.6998125,182.94841495300543L908.1515357142857,170.465851937092L912.6032589285714,218.14703447213026L917.0549821428573,198.73541108493427L921.506705357143,225.60668473008735L925.9584285714286,234.39079638928447L930.4101517857143,204.87506665131647L934.861875,217.84770239053321L939.3135982142858,243.881878791097L943.7653214285715,226.25140397779353L948.2170446428571,234.4438747212458L952.6687678571428,211.06668903678093L957.1204910714287,234.24888218642357L961.5722142857144,217.8958414008227L966.0239375000001,234.79513968096552L970.4756607142858,188.2236755067565L974.9273839285714,210.9132850352461L979.3791071428572,225.7639322573651L983.8308303571429,198.8268472872141L988.2825535714286,210.90680076516165L992.7342767857143,174.28283350999567L997.1860000000001,182.97273171320953L1001.6377232142858,234.19483828571742L1006.0894464285715,166.3476744943625L1010.5411696428572,226.04514429898205L1014.9928928571429,193.33901026154723L1019.4446160714286,217.86547258719446L1023.8963392857144,174.86867197373513L1028.3480625,204.89617164205367L1032.799785714286,225.85613633201027L1037.2515089285716,193.33173993360006L1041.7032321428571,234.75533168590084L1046.1549553571429,234.69918418160748L1050.6066785714286,234.17173817591666L1055.0584017857143,226.15344678815987L1059.510125,178.4683558560124L1063.9618482142857,234.7197892087616L1068.4135714285715,225.86335253492933L1072.8652946428572,193.09296269144022L1077.317017857143,193.23462776028234L1081.7687410714286,234.4318381829612L1086.2204642857143,204.83713750999445L1090.6721875,225.84336723626527L1095.1239107142858,243.8800371546097L1099.5756339285715,218.22290647358938L1104.0273571428572,188.0674299442565L1108.479080357143,243.61577983532038L1112.9308035714287,225.6103276993839L1117.3825267857144,174.68116620006612L1121.83425,204.6449846362179L1126.2859732142858,218.4182521260102L1130.7376964285716,204.4718552645907L1135.1894196428573,211.08887322777107L1139.641142857143,218.30319898644382L1144.0928660714285,204.55627374218776L1148.5445892857142,234.23901453520617L1152.9963125000002,188.11936502625787L1157.4480357142859,225.64201930049705L1161.8997589285716,211.26396581754716L1166.3514821428573,204.46630887551947L1170.8032053571428,211.40274112830187L1175.2549285714285,234.84286435420836L1179.7066517857143,244.12124605088925L1184.158375,234.6677100201271L1188.610098214286,166.34367658352815L1193.0618214285716,198.60988989184446L1197.5135446428571,193.39668519660404" style="fill: none;" fill="none"></path></g><g><path stroke="rgb(0, 119, 187)" stroke-width="2px" d="M89.0344642857143,324.29913329454007L93.4861875,324.32129168407016L97.93791071428572,263.77961262122176L102.38963392857143,316.7663516550982L106.84135714285715,316.80359030671923L111.29308035714287,309.92570760784207L115.74480357142858,316.586508658848L120.1965267857143,324.3507416576755L124.64825000000002,316.7336317171201L129.09997321428574,324.498740581524L133.55169642857143,316.7473180392838L138.00341964285715,309.66226376247755L142.45514285714287,324.5320807199332L146.90686607142857,324.33763629948373L151.3585892857143,324.45107907769386L155.8103125,324.5960116014979L160.2620357142857,316.77236837764417L164.71375892857145,316.7282012047313L169.16548214285714,324.3440694670718L173.61720535714286,316.70437222705823L178.0689285714286,316.65313071782924L182.5206517857143,324.38861618743795L186.972375,309.74259058426884L191.42409821428575,324.42890740199323L195.87582142857144,316.81575383771514L200.32754464285716,324.4660626553993L204.77926785714286,324.3939966450564L209.23099107142858,316.74493786538346L213.6827142857143,316.6297674946062L218.1344375,316.6430183627903L222.58616071428574,316.7524658596499L227.03788392857143,316.7161593796321L231.48960714285715,316.5837107584529L235.94133035714287,316.8945360848019L240.3930535714286,316.7265236020595L244.8447767857143,324.5630945871781L249.29650000000004,324.3042353093509L253.74822321428573,316.6420025569772L258.1999464285715,324.31163636380836L262.65166964285714,310.0117477370031L267.10339285714286,324.2830405306833L271.5551160714286,316.7192199886793L276.0068392857143,316.88028148527144L280.4585625,324.6354786395984L284.91028571428575,324.2482274735372L289.36200892857147,324.3330885385814L293.81373214285713,316.86147406451585L298.2654553571429,324.54691441195786L302.7171785714286,324.33626796966144L307.1689017857143,324.43286942682863L311.620625,316.8146738231291L316.07234821428574,324.47501433836925L320.5240714285714,324.516282394856L324.9757946428572,324.2597582920531L329.4275178571429,316.80486651209L333.87924107142857,324.3542625275412L338.3309642857143,324.2261006773363L342.78268750000007,324.16410798031745L347.23441071428573,324.28207597574294L351.68613392857145,324.5383701877717L356.1378571428572,324.4676493164075L360.5895803571429,316.7912788136983L365.0413035714286,324.3286943189232L369.49302678571433,309.84774443911544L373.94475,324.40401423849835L378.3964732142857,316.7414838996635L382.8481964285715,316.862368570713L387.29991964285716,309.7278920002308L391.7516428571429,324.43255109332694L396.20336607142855,316.85499565673877L400.6550892857143,316.71862643813097L405.10681250000005,324.4047302348522L409.5585357142857,324.4872036617845L414.01025892857143,324.3829804472406L418.46198214285715,324.5124072742706L422.9137053571429,324.309343325776L427.3654285714286,316.90520801042305L431.8171517857143,324.52332751553735L436.268875,324.3159558543111L440.72059821428576,324.58040565127874L445.1723214285715,316.88087106632094L449.62404464285714,324.49324497704816L454.07576785714286,316.91305638068667L458.52749107142864,324.35127545699805L462.9792142857143,309.7868445394911L467.4309375,324.4180114258985L471.88266071428575,324.28343770374966L476.3343839285714,316.7173980605686L480.7861071428572,316.75953497194996L485.2378303571429,324.3463067182463L489.6895535714286,316.7512214714672L494.1412767857143,324.28230860263346L498.5930000000001,316.6725029846362L503.04472321428574,324.2770888450918L507.49644642857146,324.37523763401873L511.9481696428572,324.3276440567319L516.399892857143,324.5053915650101L520.8516160714286,316.7016888801881L525.3033392857143,316.738308861116L529.7550625,316.7115454621553L534.2067857142857,324.32905765608507L538.6585089285715,324.2860704437148L543.1102321428572,316.66970722903795L547.5619553571429,316.68358896396506L552.0136785714286,324.4627643211736L556.4654017857143,316.90506315651805L560.917125,324.4165337345056L565.3688482142858,316.6887275199005L569.8205714285715,316.74922326211737L574.2722946428571,324.32326716676L578.7240178571429,324.24192678011L583.1757410714287,316.7395891866808L587.6274642857143,324.3238745807396L592.0791875,324.5102848576444L596.5309107142858,316.7368168947124L600.9826339285714,324.63408810219363L605.4343571428572,324.38683793212465L609.8860803571429,324.2974478284349L614.3378035714286,316.74442156804025L618.7895267857143,324.3238518735918L623.24125,316.63270105770033L627.6929732142858,324.5065864111348L632.1446964285715,324.19351139090946L636.5964196428571,316.68893389451245L641.0481428571428,324.3624122328917L645.4998660714286,324.45757825034127L649.9515892857144,324.34940149637123L654.4033125000001,324.4624572418131L658.8550357142858,309.76899618472936L663.3067589285714,316.71258279621946L667.7584821428571,324.50819094690024L672.2102053571429,324.4867827208726L676.6619285714286,324.42077364541643L681.1136517857143,324.34041277517275L685.5653750000001,324.2387794551076L690.0170982142857,316.681107510621L694.4688214285715,324.6757634399663L698.9205446428572,324.40454271137736L703.3722678571429,316.83962123556455L707.8239910714286,324.30648847189246L712.2757142857143,324.3400550643007L716.7274375,324.3355696194906L721.1791607142858,324.3436947052352L725.6308839285715,324.289327444679L730.0826071428572,324.25841965616075L734.534330357143,324.2985090436882L738.9860535714287,324.5520322763028L743.4377767857143,324.3441035364168L747.8895,316.7354901521471L752.3412232142857,316.7608414578295L756.7929464285714,309.9120275144045L761.2446696428573,316.76701786215176L765.696392857143,324.3251632219511L770.1481160714286,316.69426370353835L774.5998392857143,316.9488106255827L779.0515625,316.9575795605218L783.5032857142858,316.7910205148207L787.9550089285715,316.7829051894126L792.4067321428571,316.80725363921505L796.8584553571428,324.3600382259345L801.3101785714287,324.64207262393643L805.7619017857144,324.38579826764214L810.2136250000001,324.47473564950246L814.6653482142858,324.3849972239088L819.1170714285714,324.40852057642064L823.5687946428571,316.65299147732475L828.0205178571429,324.21317447828454L832.4722410714286,316.9172938899046L836.9239642857143,324.49816597164016L841.3756875000001,324.30445097455174L845.8274107142857,324.4523982020781L850.2791339285715,316.87017136452255L854.7308571428572,324.309678196038L859.1825803571429,324.5433167324982L863.6343035714286,324.342042367192L868.0860267857144,324.6409783382208L872.53775,324.57786570114354L876.9894732142858,324.37768594063505L881.4411964285715,316.77580301900264L885.8929196428572,309.7874786742267L890.344642857143,324.44749139698575L894.7963660714287,324.44431890707324L899.2480892857143,309.88133878034006L903.6998125,316.93823120844087L908.1515357142857,324.32463527391917L912.6032589285714,324.32486802477206L917.0549821428573,324.3581640597472L921.506705357143,316.6824797809064L925.9584285714286,324.4149026222823L930.4101517857143,309.88064704542774L934.861875,324.43890094948097L939.3135982142858,316.7357637587326L943.7653214285715,324.48369968072666L948.2170446428571,324.40188901727186L952.6687678571428,324.2697760845071L957.1204910714287,316.9847828414363L961.5722142857144,324.5419277983346L966.0239375000001,324.46676214722856L970.4756607142858,317.0233928141203L974.9273839285714,316.6773364681867L979.3791071428572,324.42887329646317L983.8308303571429,316.7978502180358L988.2825535714286,316.61760131772843L992.7342767857143,324.40513937850704L997.1860000000001,324.27898947819176L1001.6377232142858,324.51443301136396L1006.0894464285715,324.340344639645L1010.5411696428572,316.71641227542966L1014.9928928571429,324.49418932938494L1019.4446160714286,316.90927954726874L1023.8963392857144,316.98580819380686L1028.3480625,324.4723014288959L1032.799785714286,316.70098193649426L1037.2515089285716,316.7545209497925L1041.7032321428571,324.43678048480524L1046.1549553571429,324.2707972211043L1050.6066785714286,324.62466841851904L1055.0584017857143,324.3898945104404L1059.510125,316.7363006498503L1063.9618482142857,316.7557963715171L1068.4135714285715,316.8232471639442L1072.8652946428572,324.3206161710252L1077.317017857143,316.86177395565085L1081.7687410714286,324.3412474401031L1086.2204642857143,324.2615961168489L1090.6721875,324.5156678257459L1095.1239107142858,316.7131143706363L1099.5756339285715,316.70405744516285L1104.0273571428572,324.5223543641475L1108.479080357143,324.3364666883054L1112.9308035714287,316.9029007258776L1117.3825267857144,324.4114359090044L1121.83425,316.68367150843625L1126.2859732142858,309.6387652879531L1130.7376964285716,324.3426328895785L1135.1894196428573,324.37474911778L1139.641142857143,324.3732267840096L1144.0928660714285,324.3174146574742L1148.5445892857142,324.44272702412036L1152.9963125000002,324.6498185435751L1157.4480357142859,316.75312678739596L1161.8997589285716,324.3030945636307L1166.3514821428573,324.51794403130697L1170.8032053571428,324.40388354144375L1175.2549285714285,324.2891969351179L1179.7066517857143,324.38316792010835L1184.158375,316.63499539564725L1188.610098214286,316.84473365183703L1193.0618214285716,316.73687884432L1197.5135446428571,316.7190703102991" style="fill: none;" fill="none"></path></g><g><path stroke="rgb(255, 112, 67)" stroke-width="2px" d="M89.0344642857143,315.68021754268193L93.4861875,255.46610711607025L97.93791071428572,207.16359240540143L102.38963392857143,255.52603047045L106.84135714285715,247.86402754640477L111.29308035714287,225.87296632427504L115.74480357142858,247.9179686943315L120.1965267857143,247.98161268633945L124.64825000000002,240.96707053891967L129.09997321428574,244.30611996888888L133.55169642857143,231.52945183897677L138.00341964285715,211.54869796581846L142.45514285714287,173.01850008872503L146.90686607142857,160.06299495964933L151.3585892857143,168.72826924315183L155.8103125,175.87226392441517L160.2620357142857,161.16068789540415L164.71375892857145,159.13546679425193L169.16548214285714,195.05251806224078L173.61720535714286,191.45478424573338L178.0689285714286,145.02684565033672L182.5206517857143,157.75112836971525L186.972375,158.7962455146957L191.42409821428575,130.6863708242148L195.87582142857144,162.3197739316568L200.32754464285716,133.03385531063378L204.77926785714286,129.64197437158163L209.23099107142858,102.47275310534212L213.6827142857143,135.6641888235613L218.1344375,119.25618827029069L222.58616071428574,170.18029488483714L227.03788392857143,159.90924328721007L231.48960714285715,149.1595373214903L235.94133035714287,138.30062897608957L240.3930535714286,123.56915846506016L244.8447767857143,121.28628605323959L249.29650000000004,92.79946324782043L253.74822321428573,120.66035919689591L258.1999464285715,104.93811990541286L262.65166964285714,103.06783692063982L267.10339285714286,98.24301126411694L271.5551160714286,139.23822116752228L276.0068392857143,123.65395038418589L280.4585625,101.3922951284489L284.91028571428575,111.7027205803999L289.36200892857147,92.2416010638438L293.81373214285713,112.94498996270102L298.2654553571429,79.19317440121563L302.7171785714286,120.68745840164615L307.1689017857143,145.02052067790427L311.620625,104.399676597986L316.07234821428574,95.35712484236092L320.5240714285714,82.13681013396274L324.9757946428572,101.42587909974338L329.4275178571429,124.45713616953506L333.87924107142857,66.73796477307292L338.3309642857143,99.71912285454266L342.78268750000007,109.13959330799236L347.23441071428573,102.52911407969651L351.68613392857145,129.1268323968077L356.1378571428572,87.90206381174414L360.5895803571429,59.35660366638717L365.0413035714286,75.40664592374821L369.49302678571433,53.85164295998425L373.94475,111.11778515835533L378.3964732142857,53.51602864228465L382.8481964285715,146.11517416671373L387.29991964285716,72.18620138136646L391.7516428571429,107.993887990215L396.20336607142855,75.72702978461496L400.6550892857143,67.87008028676769L405.10681250000005,79.05788341122854L409.5585357142857,62.38138789086588L414.01025892857143,87.3824392364786L418.46198214285715,73.03254785458944L422.9137053571429,70.39308935221453L427.3654285714286,95.19240261670092L431.8171517857143,126.74328335748575L436.268875,89.64338115564794L440.72059821428576,78.41360243598149L445.1723214285715,110.44005552834699L449.62404464285714,94.72734786917187L454.07576785714286,62.34507278843978L458.52749107142864,78.19088033240462L462.9792142857143,77.3836518285612L467.4309375,46.6571364468947L471.88266071428575,85.0181632694821L476.3343839285714,64.121168426966L480.7861071428572,79.0896433840785L485.2378303571429,79.69488241129562L489.6895535714286,56.23592261967377L494.1412767857143,136.07825766157282L498.5930000000001,55.59906234482435L503.04472321428574,58.3253622149677L507.49644642857146,69.71445645462165L511.9481696428572,64.94892672121574L516.399892857143,81.76285061700702L520.8516160714286,66.88752348233947L525.3033392857143,68.89405227425078L529.7550625,86.00731889240944L534.2067857142857,117.81213578608367L538.6585089285715,47.86353038714702L543.1102321428572,74.96543889919474L547.5619553571429,118.5453352849716L552.0136785714286,66.88711079085743L556.4654017857143,50.65485130234623L560.917125,62.965933596391324L565.3688482142858,68.98518646067708L569.8205714285715,58.94779689219013L574.2722946428571,58.389377858691546L578.7240178571429,78.25659001247465L583.1757410714287,107.30628615859212L587.6274642857143,127.37173698858825L592.0791875,80.97476248815377L596.5309107142858,40.77520037599538L600.9826339285714,107.91027977013687L605.4343571428572,67.12670708352402L609.8860803571429,68.05193468521759L614.3378035714286,52.325296015728895L618.7895267857143,99.6041930775134L623.24125,88.2934279008872L627.6929732142858,87.82194105689479L632.1446964285715,101.90556742528128L636.5964196428571,48.31976423634114L641.0481428571428,110.39001659647147L645.4998660714286,93.71740215265453L649.9515892857144,76.54215698134749L654.4033125000001,91.78209575502001L658.8550357142858,87.87556385611714L663.3067589285714,95.43694823768914L667.7584821428571,48.00801131261744L672.2102053571429,51.965446450461116L676.6619285714286,112.3525205050903L681.1136517857143,42.98544585518556L685.5653750000001,143.99259378487588L690.0170982142857,147.79177225088029L694.4688214285715,73.83675192180795L698.9205446428572,60.47886604348133L703.3722678571429,85.98838248620712L707.8239910714286,47.85590753663706L712.2757142857143,89.077453141469L716.7274375,60.284586795162056L721.1791607142858,86.43853236783457L725.6308839285715,56.434131892360256L730.0826071428572,73.77956550485021L734.534330357143,66.36577032382263L738.9860535714287,52.26977466490354L743.4377767857143,43.81801487383666L747.8895,39.94642509198616L752.3412232142857,95.84366369752195L756.7929464285714,56.95846318611211L761.2446696428573,73.68205696819814L765.696392857143,112.24740721880698L770.1481160714286,69.76956288376294L774.5998392857143,52.65856434400712L779.0515625,49.6000471224757L783.5032857142858,70.94262835467396L787.9550089285715,54.175185617836746L792.4067321428571,56.10499836753604L796.8584553571428,39.93741324307712L801.3101785714287,53.464759750992755L805.7619017857144,84.01551473612528L810.2136250000001,39.9449471617545L814.6653482142858,52.86210189924225L819.1170714285714,59.66249076800352L823.5687946428571,77.79840890555624L828.0205178571429,86.4876808708679L832.4722410714286,44.325367970731975L836.9239642857143,39.94713306125834L841.3756875000001,75.24451888647798L845.8274107142857,47.20336549891948L850.2791339285715,49.782860197665286L854.7308571428572,39.94493682667439L859.1825803571429,39.919201456846565L863.6343035714286,50.21769245794877L868.0860267857144,40.00139664231608L872.53775,117.09301498337896L876.9894732142858,60.08837170985555L881.4411964285715,41.89243562599859L885.8929196428572,86.99651699091055L890.344642857143,68.65353088578951L894.7963660714287,69.02667996328233L899.2480892857143,52.82992605992416L903.6998125,39.997208085677244L908.1515357142857,105.45919894138405L912.6032589285714,47.78007811182772L917.0549821428573,54.277387049989784L921.506705357143,39.944440744398264L925.9584285714286,89.77446408202678L930.4101517857143,39.9518564620746L934.861875,44.056706862334636L939.3135982142858,40.26762356528121L943.7653214285715,48.04841309760599L948.2170446428571,61.66994352407886L952.6687678571428,67.40166614123126L957.1204910714287,65.92613943565823L961.5722142857144,85.8359787448561L966.0239375000001,41.081570053568555L970.4756607142858,73.51577372896293L974.9273839285714,39.94679199498631L979.3791071428572,39.93365688377679L983.8308303571429,67.81220301798635L988.2825535714286,39.91618464261512L992.7342767857143,100.2450404421134L997.1860000000001,76.62615080646384L1001.6377232142858,44.34074688961937L1006.0894464285715,47.41653143309094L1010.5411696428572,99.85042705835508L1014.9928928571429,47.70307917436787L1019.4446160714286,50.83563146117831L1023.8963392857144,39.956094324119476L1028.3480625,39.95302443575787L1032.799785714286,43.52505240719478L1037.2515089285716,46.63512968160717L1041.7032321428571,58.28409613628776L1046.1549553571429,40.53087281864538L1050.6066785714286,72.47699631084907L1055.0584017857143,46.04831382850034L1059.510125,40.027686142252264L1063.9618482142857,39.960869940507166L1068.4135714285715,50.970554178960015L1072.8652946428572,42.51302237220909L1077.317017857143,42.45612507705641L1081.7687410714286,39.93016419645721L1086.2204642857143,52.20315776671504L1090.6721875,39.976092830888035L1095.1239107142858,39.927673941649346L1099.5756339285715,39.984049172943685L1104.0273571428572,53.54062171130852L1108.479080357143,43.713173439469415L1112.9308035714287,49.28262305249012L1117.3825267857144,65.9341590375833L1121.83425,68.66228059407808L1126.2859732142858,39.99455027597071L1130.7376964285716,46.35134450044444L1135.1894196428573,44.19284549339727L1139.641142857143,44.36079251604997L1144.0928660714285,99.68782051822967L1148.5445892857142,67.29441571558601L1152.9963125000002,77.54183526142316L1157.4480357142859,39.92326193804769L1161.8997589285716,60.98875637497878L1166.3514821428573,39.90919061771274L1170.8032053571428,39.91611748880007L1175.2549285714285,70.25213404613555L1179.7066517857143,85.81961555022883L1184.158375,47.25507190552793L1188.610098214286,46.02585515052414L1193.0618214285716,39.97430935415895L1197.5135446428571,58.31361618446152" style="fill: none;" fill="none"></path></g></g></g></g></g></g><g transform="translate(53, 377)" clip-path="url(#clip_1)"><clipPath id="clip_1"><rect width="1246" height="23"></rect></clipPath><g><g><line x1="0" y1="0" x2="0" y2="5" style="visibility: inherit;" fill="rgb(0, 0, 0)" stroke="rgb(204, 204, 204)" stroke-width="1px"></line><line x1="89.0344642857143" y1="0" x2="89.0344642857143" y2="5" style="visibility: inherit;" fill="rgb(0, 0, 0)" stroke="rgb(204, 204, 204)" stroke-width="1px"></line><line x1="178.0689285714286" y1="0" x2="178.0689285714286" y2="5" style="visibility: inherit;" fill="rgb(0, 0, 0)" stroke="rgb(204, 204, 204)" stroke-width="1px"></line><line x1="267.10339285714286" y1="0" x2="267.10339285714286" y2="5" style="visibility: inherit;" fill="rgb(0, 0, 0)" stroke="rgb(204, 204, 204)" stroke-width="1px"></line><line x1="356.1378571428572" y1="0" x2="356.1378571428572" y2="5" style="visibility: inherit;" fill="rgb(0, 0, 0)" stroke="rgb(204, 204, 204)" stroke-width="1px"></line><line x1="445.1723214285715" y1="0" x2="445.1723214285715" y2="5" style="visibility: inherit;" fill="rgb(0, 0, 0)" stroke="rgb(204, 204, 204)" stroke-width="1px"></line><line x1="534.2067857142857" y1="0" x2="534.2067857142857" y2="5" style="visibility: inherit;" fill="rgb(0, 0, 0)" stroke="rgb(204, 204, 204)" stroke-width="1px"></line><line x1="623.24125" y1="0" x2="623.24125" y2="5" style="visibility: inherit;" fill="rgb(0, 0, 0)" stroke="rgb(204, 204, 204)" stroke-width="1px"></line><line x1="712.2757142857143" y1="0" x2="712.2757142857143" y2="5" style="visibility: inherit;" fill="rgb(0, 0, 0)" stroke="rgb(204, 204, 204)" stroke-width="1px"></line><line x1="801.3101785714287" y1="0" x2="801.3101785714287" y2="5" style="visibility: inherit;" fill="rgb(0, 0, 0)" stroke="rgb(204, 204, 204)" stroke-width="1px"></line><line x1="890.344642857143" y1="0" x2="890.344642857143" y2="5" style="visibility: inherit;" fill="rgb(0, 0, 0)" stroke="rgb(204, 204, 204)" stroke-width="1px"></line><line x1="979.3791071428572" y1="0" x2="979.3791071428572" y2="5" style="visibility: inherit;" fill="rgb(0, 0, 0)" stroke="rgb(204, 204, 204)" stroke-width="1px"></line><line x1="1068.4135714285715" y1="0" x2="1068.4135714285715" y2="5" style="visibility: inherit;" fill="rgb(0, 0, 0)" stroke="rgb(204, 204, 204)" stroke-width="1px"></line><line x1="1157.4480357142859" y1="0" x2="1157.4480357142859" y2="5" style="visibility: inherit;" fill="rgb(0, 0, 0)" stroke="rgb(204, 204, 204)" stroke-width="1px"></line><line x1="1246.4825" y1="0" x2="1246.4825" y2="5" style="visibility: inherit;" fill="rgb(0, 0, 0)" stroke="rgb(204, 204, 204)" stroke-width="1px"></line></g><g transform="translate(0, 8)"><text x="0" y="0" dx="0em" dy="0.95em" style="text-anchor: middle; visibility: hidden; font-family: &quot;Helvetica Neue&quot;, sans-serif; font-size: 12px; font-weight: 200;" fill="rgb(50, 49, 63)" stroke="none" stroke-width="1px">-20</text><text x="89.0344642857143" y="0" dx="0em" dy="0.95em" style="text-anchor: middle; visibility: inherit; font-family: &quot;Helvetica Neue&quot;, sans-serif; font-size: 12px; font-weight: 200;" fill="rgb(50, 49, 63)" stroke="none" stroke-width="1px">0</text><text x="178.0689285714286" y="0" dx="0em" dy="0.95em" style="text-anchor: middle; visibility: inherit; font-family: &quot;Helvetica Neue&quot;, sans-serif; font-size: 12px; font-weight: 200;" fill="rgb(50, 49, 63)" stroke="none" stroke-width="1px">20</text><text x="267.10339285714286" y="0" dx="0em" dy="0.95em" style="text-anchor: middle; visibility: inherit; font-family: &quot;Helvetica Neue&quot;, sans-serif; font-size: 12px; font-weight: 200;" fill="rgb(50, 49, 63)" stroke="none" stroke-width="1px">40</text><text x="356.1378571428572" y="0" dx="0em" dy="0.95em" style="text-anchor: middle; visibility: inherit; font-family: &quot;Helvetica Neue&quot;, sans-serif; font-size: 12px; font-weight: 200;" fill="rgb(50, 49, 63)" stroke="none" stroke-width="1px">60</text><text x="445.1723214285715" y="0" dx="0em" dy="0.95em" style="text-anchor: middle; visibility: inherit; font-family: &quot;Helvetica Neue&quot;, sans-serif; font-size: 12px; font-weight: 200;" fill="rgb(50, 49, 63)" stroke="none" stroke-width="1px">80</text><text x="534.2067857142857" y="0" dx="0em" dy="0.95em" style="text-anchor: middle; visibility: inherit; font-family: &quot;Helvetica Neue&quot;, sans-serif; font-size: 12px; font-weight: 200;" fill="rgb(50, 49, 63)" stroke="none" stroke-width="1px">100</text><text x="623.24125" y="0" dx="0em" dy="0.95em" style="text-anchor: middle; visibility: inherit; font-family: &quot;Helvetica Neue&quot;, sans-serif; font-size: 12px; font-weight: 200;" fill="rgb(50, 49, 63)" stroke="none" stroke-width="1px">120</text><text x="712.2757142857143" y="0" dx="0em" dy="0.95em" style="text-anchor: middle; visibility: inherit; font-family: &quot;Helvetica Neue&quot;, sans-serif; font-size: 12px; font-weight: 200;" fill="rgb(50, 49, 63)" stroke="none" stroke-width="1px">140</text><text x="801.3101785714287" y="0" dx="0em" dy="0.95em" style="text-anchor: middle; visibility: inherit; font-family: &quot;Helvetica Neue&quot;, sans-serif; font-size: 12px; font-weight: 200;" fill="rgb(50, 49, 63)" stroke="none" stroke-width="1px">160</text><text x="890.344642857143" y="0" dx="0em" dy="0.95em" style="text-anchor: middle; visibility: inherit; font-family: &quot;Helvetica Neue&quot;, sans-serif; font-size: 12px; font-weight: 200;" fill="rgb(50, 49, 63)" stroke="none" stroke-width="1px">180</text><text x="979.3791071428572" y="0" dx="0em" dy="0.95em" style="text-anchor: middle; visibility: inherit; font-family: &quot;Helvetica Neue&quot;, sans-serif; font-size: 12px; font-weight: 200;" fill="rgb(50, 49, 63)" stroke="none" stroke-width="1px">200</text><text x="1068.4135714285715" y="0" dx="0em" dy="0.95em" style="text-anchor: middle; visibility: inherit; font-family: &quot;Helvetica Neue&quot;, sans-serif; font-size: 12px; font-weight: 200;" fill="rgb(50, 49, 63)" stroke="none" stroke-width="1px">220</text><text x="1157.4480357142859" y="0" dx="0em" dy="0.95em" style="text-anchor: middle; visibility: inherit; font-family: &quot;Helvetica Neue&quot;, sans-serif; font-size: 12px; font-weight: 200;" fill="rgb(50, 49, 63)" stroke="none" stroke-width="1px">240</text><text x="1246.4825" y="0" dx="0em" dy="0.95em" style="text-anchor: middle; visibility: hidden; font-family: &quot;Helvetica Neue&quot;, sans-serif; font-size: 12px; font-weight: 200;" fill="rgb(50, 49, 63)" stroke="none" stroke-width="1px">260</text></g><line x1="0" y1="0" x2="1246.4825" y2="0" fill="rgb(0, 0, 0)" stroke="rgb(204, 204, 204)" stroke-width="1px"></line></g></g></g></g></svg>